<svg version="1.1" viewBox="0.0 0.0 471.9422572178478 285.6692913385827" fill="none" stroke="none" stroke-linecap="square" stroke-miterlimit="10" xmlns:xlink="http://www.w3.org/1999/xlink" xmlns="http://www.w3.org/2000/svg"><clipPath id="p.0"><path d="m0 0l471.94226 0l0 285.66928l-471.94226 0l0 -285.66928z" clip-rule="nonzero"/></clipPath><g clip-path="url(#p.0)"><path fill="#000000" fill-opacity="0.0" d="m0 0l471.94226 0l0 285.66928l-471.94226 0z" fill-rule="evenodd"/><path fill="#000000" fill-opacity="0.0" d="m74.72966 108.92166l0 0c0 -10.993736 8.912178 -19.905914 19.905907 -19.905914l102.48739 0c5.2793884 0 10.342529 2.0972214 14.075607 5.830307c3.733078 3.7330856 5.830307 8.7962265 5.830307 14.075607l0 79.62125c0 10.993729 -8.91217 19.905914 -19.905914 19.905914l-102.48739 0l0 0c-10.993729 0 -19.905907 -8.912186 -19.905907 -19.905914z" fill-rule="evenodd"/><path stroke="#1155cc" stroke-width="3.0" stroke-linejoin="round" stroke-linecap="butt" d="m74.72966 108.92166l0 0c0 -10.993736 8.912178 -19.905914 19.905907 -19.905914l102.48739 0c5.2793884 0 10.342529 2.0972214 14.075607 5.830307c3.733078 3.7330856 5.830307 8.7962265 5.830307 14.075607l0 79.62125c0 10.993729 -8.91217 19.905914 -19.905914 19.905914l-102.48739 0l0 0c-10.993729 0 -19.905907 -8.912186 -19.905907 -19.905914z" fill-rule="evenodd"/><path fill="#000000" fill-opacity="0.0" d="m215.76378 36.294407l0 0c0 -12.283869 9.958038 -22.241913 22.241913 -22.241913l141.02797 0c5.898926 0 11.556244 2.343339 15.727417 6.5145063c4.171173 4.1711674 6.5145264 9.8284855 6.5145264 15.727407l0 88.965c0 12.2838745 -9.958069 22.241913 -22.241943 22.241913l-141.02797 0c-12.2838745 0 -22.241913 -9.958038 -22.241913 -22.241913z" fill-rule="evenodd"/><path stroke="#e69138" stroke-width="2.0" stroke-linejoin="round" stroke-linecap="butt" d="m215.76378 36.294407l0 0c0 -12.283869 9.958038 -22.241913 22.241913 -22.241913l141.02797 0c5.898926 0 11.556244 2.343339 15.727417 6.5145063c4.171173 4.1711674 6.5145264 9.8284855 6.5145264 15.727407l0 88.965c0 12.2838745 -9.958069 22.241913 -22.241943 22.241913l-141.02797 0c-12.2838745 0 -22.241913 -9.958038 -22.241913 -22.241913z" fill-rule="evenodd"/><path fill="#6aa84f" d="m192.07214 100.09209l0 0c0 -4.426979 3.6099243 -8.015747 8.062988 -8.015747l0 0c2.138443 0 4.1892853 0.84451294 5.7014008 2.3477554c1.5121002 1.5032425 2.3615875 3.5420837 2.3615875 5.6679916l0 0c0 4.4269714 -3.6099243 8.015747 -8.062988 8.015747l0 0c-4.453064 0 -8.062988 -3.5887756 -8.062988 -8.015747z" fill-rule="evenodd"/><path stroke="#424242" stroke-width="1.0" stroke-linejoin="round" stroke-linecap="butt" d="m192.07214 100.09209l0 0c0 -4.426979 3.6099243 -8.015747 8.062988 -8.015747l0 0c2.138443 0 4.1892853 0.84451294 5.7014008 2.3477554c1.5121002 1.5032425 2.3615875 3.5420837 2.3615875 5.6679916l0 0c0 4.4269714 -3.6099243 8.015747 -8.062988 8.015747l0 0c-4.453064 0 -8.062988 -3.5887756 -8.062988 -8.015747z" fill-rule="evenodd"/><path fill="#6aa84f" d="m249.68361 135.64034l0 0c0 -4.4269714 3.6099243 -8.015747 8.062973 -8.015747l0 0c2.1384583 0 4.1893005 0.84451294 5.701416 2.3477478c1.512085 1.5032501 2.3616028 3.5420837 2.3616028 5.6679993l0 0c0 4.4269714 -3.6099243 8.015747 -8.063019 8.015747l0 0c-4.4530487 0 -8.062973 -3.5887756 -8.062973 -8.015747z" fill-rule="evenodd"/><path stroke="#424242" stroke-width="1.0" stroke-linejoin="round" stroke-linecap="butt" d="m249.68361 135.64034l0 0c0 -4.4269714 3.6099243 -8.015747 8.062973 -8.015747l0 0c2.1384583 0 4.1893005 0.84451294 5.701416 2.3477478c1.512085 1.5032501 2.3616028 3.5420837 2.3616028 5.6679993l0 0c0 4.4269714 -3.6099243 8.015747 -8.063019 8.015747l0 0c-4.4530487 0 -8.062973 -3.5887756 -8.062973 -8.015747z" fill-rule="evenodd"/><path fill="#6aa84f" d="m310.04315 111.97112l0 0c0 -4.4269714 3.6099243 -8.015747 8.062988 -8.015747l0 0c2.1384277 0 4.1893005 0.84451294 5.7013855 2.3477554c1.5121155 1.5032501 2.3616028 3.5420837 2.3616028 5.6679916l0 0c0 4.426979 -3.6099243 8.015747 -8.062988 8.015747l0 0c-4.453064 0 -8.062988 -3.588768 -8.062988 -8.015747z" fill-rule="evenodd"/><path stroke="#424242" stroke-width="1.0" stroke-linejoin="round" stroke-linecap="butt" d="m310.04315 111.97112l0 0c0 -4.4269714 3.6099243 -8.015747 8.062988 -8.015747l0 0c2.1384277 0 4.1893005 0.84451294 5.7013855 2.3477554c1.5121155 1.5032501 2.3616028 3.5420837 2.3616028 5.6679916l0 0c0 4.426979 -3.6099243 8.015747 -8.062988 8.015747l0 0c-4.453064 0 -8.062988 -3.588768 -8.062988 -8.015747z" fill-rule="evenodd"/><path fill="#6aa84f" d="m140.81693 111.64103l0 0c0 -4.4269714 3.6099243 -8.015747 8.063004 -8.015747l0 0c2.1384277 0 4.1892853 0.84451294 5.7013855 2.3477554c1.5121155 1.5032501 2.3616028 3.5420837 2.3616028 5.6679916l0 0c0 4.426979 -3.6099243 8.015747 -8.062988 8.015747l0 0c-4.453079 0 -8.063004 -3.588768 -8.063004 -8.015747z" fill-rule="evenodd"/><path stroke="#424242" stroke-width="1.0" stroke-linejoin="round" stroke-linecap="butt" d="m140.81693 111.64103l0 0c0 -4.4269714 3.6099243 -8.015747 8.063004 -8.015747l0 0c2.1384277 0 4.1892853 0.84451294 5.7013855 2.3477554c1.5121155 1.5032501 2.3616028 3.5420837 2.3616028 5.6679916l0 0c0 4.426979 -3.6099243 8.015747 -8.062988 8.015747l0 0c-4.453079 0 -8.063004 -3.588768 -8.063004 -8.015747z" fill-rule="evenodd"/><path fill="#6aa84f" d="m134.24915 167.9415l0 0c0 -4.4269867 3.6099243 -8.015747 8.062988 -8.015747l0 0c2.138443 0 4.1892853 0.84451294 5.7014008 2.3477478c1.5121002 1.5032501 2.3615875 3.5420837 2.3615875 5.6679993l0 0c0 4.4269714 -3.6099243 8.015747 -8.062988 8.015747l0 0c-4.453064 0 -8.062988 -3.5887756 -8.062988 -8.015747z" fill-rule="evenodd"/><path stroke="#424242" stroke-width="1.0" stroke-linejoin="round" stroke-linecap="butt" d="m134.24915 167.9415l0 0c0 -4.4269867 3.6099243 -8.015747 8.062988 -8.015747l0 0c2.138443 0 4.1892853 0.84451294 5.7014008 2.3477478c1.5121002 1.5032501 2.3615875 3.5420837 2.3615875 5.6679993l0 0c0 4.4269714 -3.6099243 8.015747 -8.062988 8.015747l0 0c-4.453064 0 -8.062988 -3.5887756 -8.062988 -8.015747z" fill-rule="evenodd"/><path fill="#6aa84f" d="m344.10846 51.93927l0 0c0 -4.4269753 3.6099243 -8.015751 8.063019 -8.015751l0 0c2.1384277 0 4.18927 0.84451675 5.7013855 2.3477592c1.5121155 1.5032463 2.3616028 3.54208 2.3616028 5.6679916l0 0c0 4.4269753 -3.6099243 8.015747 -8.062988 8.015747l0 0c-4.4530945 0 -8.063019 -3.5887718 -8.063019 -8.015747z" fill-rule="evenodd"/><path stroke="#424242" stroke-width="1.0" stroke-linejoin="round" stroke-linecap="butt" d="m344.10846 51.93927l0 0c0 -4.4269753 3.6099243 -8.015751 8.063019 -8.015751l0 0c2.1384277 0 4.18927 0.84451675 5.7013855 2.3477592c1.5121155 1.5032463 2.3616028 3.54208 2.3616028 5.6679916l0 0c0 4.4269753 -3.6099243 8.015747 -8.062988 8.015747l0 0c-4.4530945 0 -8.063019 -3.5887718 -8.063019 -8.015747z" fill-rule="evenodd"/><path fill="#6aa84f" d="m170.14058 131.97304l0 0c0 -4.426979 3.6099243 -8.015755 8.063004 -8.015755l0 0c2.1384277 0 4.1892853 0.84451294 5.7013855 2.3477554c1.5121155 1.5032501 2.3616028 3.5420837 2.3616028 5.6679993l0 0c0 4.4269714 -3.6099243 8.015747 -8.062988 8.015747l0 0c-4.453079 0 -8.063004 -3.5887756 -8.063004 -8.015747z" fill-rule="evenodd"/><path stroke="#424242" stroke-width="1.0" stroke-linejoin="round" stroke-linecap="butt" d="m170.14058 131.97304l0 0c0 -4.426979 3.6099243 -8.015755 8.063004 -8.015755l0 0c2.1384277 0 4.1892853 0.84451294 5.7013855 2.3477554c1.5121155 1.5032501 2.3616028 3.5420837 2.3616028 5.6679993l0 0c0 4.4269714 -3.6099243 8.015747 -8.062988 8.015747l0 0c-4.453079 0 -8.063004 -3.5887756 -8.063004 -8.015747z" fill-rule="evenodd"/><path fill="#6aa84f" d="m166.50906 157.949l0 0c0 -4.4269867 3.6099243 -8.015762 8.062988 -8.015762l0 0c2.138443 0 4.1893005 0.8445282 5.7014008 2.347763c1.5121002 1.5032501 2.3615875 3.5420837 2.3615875 5.6679993l0 0c0 4.4269714 -3.6099243 8.015747 -8.062988 8.015747l0 0c-4.453064 0 -8.062988 -3.5887756 -8.062988 -8.015747z" fill-rule="evenodd"/><path stroke="#424242" stroke-width="1.0" stroke-linejoin="round" stroke-linecap="butt" d="m166.50906 157.949l0 0c0 -4.4269867 3.6099243 -8.015762 8.062988 -8.015762l0 0c2.138443 0 4.1893005 0.8445282 5.7014008 2.347763c1.5121002 1.5032501 2.3615875 3.5420837 2.3615875 5.6679993l0 0c0 4.4269714 -3.6099243 8.015747 -8.062988 8.015747l0 0c-4.453064 0 -8.062988 -3.5887756 -8.062988 -8.015747z" fill-rule="evenodd"/><path fill="#6aa84f" d="m106.51079 165.06097l0 0c0 -4.4269714 3.6099243 -8.015747 8.062988 -8.015747l0 0c2.138443 0 4.189293 0.84451294 5.7014008 2.347763c1.5121002 1.5032349 2.3615952 3.5420837 2.3615952 5.667984l0 0c0 4.4269714 -3.6099243 8.015747 -8.062996 8.015747l0 0c-4.453064 0 -8.062988 -3.5887756 -8.062988 -8.015747z" fill-rule="evenodd"/><path stroke="#424242" stroke-width="1.0" stroke-linejoin="round" stroke-linecap="butt" d="m106.51079 165.06097l0 0c0 -4.4269714 3.6099243 -8.015747 8.062988 -8.015747l0 0c2.138443 0 4.189293 0.84451294 5.7014008 2.347763c1.5121002 1.5032349 2.3615952 3.5420837 2.3615952 5.667984l0 0c0 4.4269714 -3.6099243 8.015747 -8.062996 8.015747l0 0c-4.453064 0 -8.062988 -3.5887756 -8.062988 -8.015747z" fill-rule="evenodd"/><path fill="#6aa84f" d="m234.26842 109.060425l0 0c0 -4.426979 3.6099243 -8.015747 8.062988 -8.015747l0 0c2.138443 0 4.1892853 0.84451294 5.7014008 2.3477554c1.5121002 1.5032425 2.3615875 3.5420837 2.3615875 5.6679916l0 0c0 4.4269714 -3.6099243 8.015747 -8.062988 8.015747l0 0c-4.453064 0 -8.062988 -3.5887756 -8.062988 -8.015747z" fill-rule="evenodd"/><path stroke="#424242" stroke-width="1.0" stroke-linejoin="round" stroke-linecap="butt" d="m234.26842 109.060425l0 0c0 -4.426979 3.6099243 -8.015747 8.062988 -8.015747l0 0c2.138443 0 4.1892853 0.84451294 5.7014008 2.3477554c1.5121002 1.5032425 2.3615875 3.5420837 2.3615875 5.6679916l0 0c0 4.4269714 -3.6099243 8.015747 -8.062988 8.015747l0 0c-4.453064 0 -8.062988 -3.5887756 -8.062988 -8.015747z" fill-rule="evenodd"/><path fill="#6aa84f" d="m282.1745 128.01181l0 0c0 -4.426979 3.6099243 -8.015755 8.062988 -8.015755l0 0c2.1384277 0 4.1893005 0.84451294 5.7013855 2.347763c1.5121155 1.5032425 2.3616028 3.542076 2.3616028 5.6679916l0 0c0 4.4269714 -3.6099243 8.015747 -8.062988 8.015747l0 0c-4.453064 0 -8.062988 -3.5887756 -8.062988 -8.015747z" fill-rule="evenodd"/><path stroke="#424242" stroke-width="1.0" stroke-linejoin="round" stroke-linecap="butt" d="m282.1745 128.01181l0 0c0 -4.426979 3.6099243 -8.015755 8.062988 -8.015755l0 0c2.1384277 0 4.1893005 0.84451294 5.7013855 2.347763c1.5121155 1.5032425 2.3616028 3.542076 2.3616028 5.6679916l0 0c0 4.4269714 -3.6099243 8.015747 -8.062988 8.015747l0 0c-4.453064 0 -8.062988 -3.5887756 -8.062988 -8.015747z" fill-rule="evenodd"/><path fill="#6aa84f" d="m294.16885 37.523514l0 0c0 -4.4269753 3.6099243 -8.015747 8.062988 -8.015747l0 0c2.1384277 0 4.18927 0.84451294 5.7013855 2.3477573c1.5121155 1.5032444 2.3616028 3.5420818 2.3616028 5.6679897l0 0c0 4.4269753 -3.6099243 8.015747 -8.062988 8.015747l0 0c-4.453064 0 -8.062988 -3.5887718 -8.062988 -8.015747z" fill-rule="evenodd"/><path stroke="#424242" stroke-width="1.0" stroke-linejoin="round" stroke-linecap="butt" d="m294.16885 37.523514l0 0c0 -4.4269753 3.6099243 -8.015747 8.062988 -8.015747l0 0c2.1384277 0 4.18927 0.84451294 5.7013855 2.3477573c1.5121155 1.5032444 2.3616028 3.5420818 2.3616028 5.6679897l0 0c0 4.4269753 -3.6099243 8.015747 -8.062988 8.015747l0 0c-4.453064 0 -8.062988 -3.5887718 -8.062988 -8.015747z" fill-rule="evenodd"/><path fill="#6aa84f" d="m319.13184 37.52416l0 0c0 -4.4269753 3.6099243 -8.015747 8.063019 -8.015747l0 0c2.1384277 0 4.18927 0.84451485 5.7013855 2.3477592c1.5121155 1.5032425 2.3616028 3.54208 2.3616028 5.667988l0 0c0 4.426979 -3.6099243 8.015751 -8.062988 8.015751l0 0c-4.4530945 0 -8.063019 -3.5887718 -8.063019 -8.015751z" fill-rule="evenodd"/><path stroke="#424242" stroke-width="1.0" stroke-linejoin="round" stroke-linecap="butt" d="m319.13184 37.52416l0 0c0 -4.4269753 3.6099243 -8.015747 8.063019 -8.015747l0 0c2.1384277 0 4.18927 0.84451485 5.7013855 2.3477592c1.5121155 1.5032425 2.3616028 3.54208 2.3616028 5.667988l0 0c0 4.426979 -3.6099243 8.015751 -8.062988 8.015751l0 0c-4.4530945 0 -8.063019 -3.5887718 -8.063019 -8.015751z" fill-rule="evenodd"/><path fill="#6aa84f" d="m77.44164 189.24231l0 0c0 -4.4269867 3.6099243 -8.015747 8.062988 -8.015747l0 0c2.138443 0 4.189293 0.84451294 5.7014008 2.3477478c1.5121002 1.5032501 2.3615952 3.5420837 2.3615952 5.6679993l0 0c0 4.4269714 -3.6099243 8.015747 -8.062996 8.015747l0 0c-4.453064 0 -8.062988 -3.5887756 -8.062988 -8.015747z" fill-rule="evenodd"/><path stroke="#424242" stroke-width="1.0" stroke-linejoin="round" stroke-linecap="butt" d="m77.44164 189.24231l0 0c0 -4.4269867 3.6099243 -8.015747 8.062988 -8.015747l0 0c2.138443 0 4.189293 0.84451294 5.7014008 2.3477478c1.5121002 1.5032501 2.3615952 3.5420837 2.3615952 5.6679993l0 0c0 4.4269714 -3.6099243 8.015747 -8.062996 8.015747l0 0c-4.453064 0 -8.062988 -3.5887756 -8.062988 -8.015747z" fill-rule="evenodd"/><path fill="#000000" fill-opacity="0.0" d="m52.047245 241.01128l402.17322 0" fill-rule="evenodd"/><path stroke="#424242" stroke-width="8.0" stroke-linejoin="round" stroke-linecap="butt" d="m52.047245 241.01128l402.17322 0" fill-rule="evenodd"/><path fill="#000000" fill-opacity="0.0" d="m56.503937 241.01128l0 -224.06299" fill-rule="evenodd"/><path stroke="#424242" stroke-width="8.0" stroke-linejoin="round" stroke-linecap="butt" d="m56.503937 241.01128l0 -224.06299" fill-rule="evenodd"/><path fill="#000000" fill-opacity="0.0" d="m223.1811 242.96404l51.11812 0l0 35.527542l-51.11812 0z" fill-rule="evenodd"/><path fill="#000000" d="m235.75923 265.00903l-2.40625 -4.640625l1.796875 0l1.75 3.515625l0.015625 0l2.9375 -3.515625l1.921875 0l-4.140625 4.734375l2.53125 4.78125l-1.796875 0l-1.828125 -3.65625l-0.015625 0l-3.03125 3.65625l-1.90625 0l4.171875 -4.875z" fill-rule="nonzero"/><path fill="#000000" d="m244.51367 269.8684l-1.578125 1.0625l-0.5 -0.8125l2.703125 -1.734375l0.703125 0l-1.515625 8.5l-1.03125 0l1.21875 -7.015625z" fill-rule="nonzero"/><path fill="#000000" fill-opacity="0.0" d="m9.779528 111.98765l38.29921 0l0 35.527565l-38.29921 0z" fill-rule="evenodd"/><path fill="#000000" d="m22.357653 134.03265l-2.40625 -4.640625l1.796875 0l1.75 3.515625l0.015625 0l2.9375 -3.515625l1.921875 0l-4.140625 4.734375l2.53125 4.78125l-1.796875 0l-1.828125 -3.65625l-0.015625 0l-3.03125 3.65625l-1.90625 0l4.171875 -4.875z" fill-rule="nonzero"/><path fill="#000000" d="m28.049593 144.84515q0.4375 -0.375 1.578125 -1.359375q1.140625 -1.0 2.09375 -1.828125q0.4999981 -0.453125 0.7812481 -0.734375q0.28125 -0.296875 0.453125 -0.640625q0.171875 -0.34375 0.171875 -0.75q0 -0.609375 -0.375 -0.96875q-0.375 -0.359375 -1.0468731 -0.359375q-0.65625 0 -1.09375 0.40625q-0.4375 0.390625 -0.609375 0.875l-0.953125 -0.421875q0.296875 -0.75 0.984375 -1.296875q0.703125 -0.5625 1.8125 -0.5625q0.6718731 0 1.2187481 0.28125q0.546875 0.28125 0.84375 0.78125q0.3125 0.484375 0.3125 1.09375q0 0.609375 -0.25 1.109375q-0.234375 0.5 -0.609375 0.921875q-0.375 0.40625 -0.984375 0.953125l-2.968748 2.5625l3.984373 0l-0.15625 1.0l-5.374998 0l0.1875 -1.0625z" fill-rule="nonzero"/><path fill="#6aa84f" d="m198.50906 149.949l0 0c0 -4.4269867 3.6099243 -8.015762 8.062988 -8.015762l0 0c2.138443 0 4.1893005 0.8445282 5.7014008 2.347763c1.5121002 1.5032501 2.3615875 3.5420837 2.3615875 5.6679993l0 0c0 4.4269714 -3.6099243 8.015747 -8.062988 8.015747l0 0c-4.453064 0 -8.062988 -3.5887756 -8.062988 -8.015747z" fill-rule="evenodd"/><path stroke="#424242" stroke-width="1.0" stroke-linejoin="round" stroke-linecap="butt" d="m198.50906 149.949l0 0c0 -4.4269867 3.6099243 -8.015762 8.062988 -8.015762l0 0c2.138443 0 4.1893005 0.8445282 5.7014008 2.347763c1.5121002 1.5032501 2.3615875 3.5420837 2.3615875 5.6679993l0 0c0 4.4269714 -3.6099243 8.015747 -8.062988 8.015747l0 0c-4.453064 0 -8.062988 -3.5887756 -8.062988 -8.015747z" fill-rule="evenodd"/><path fill="#6aa84f" d="m86.38439 125.025116l0 0c0 -4.426979 3.6099243 -8.015747 8.062988 -8.015747l0 0c2.138443 0 4.189293 0.84451294 5.7014008 2.3477554c1.5121002 1.5032425 2.3615952 3.5420837 2.3615952 5.6679916l0 0c0 4.4269714 -3.6099243 8.015747 -8.062996 8.015747l0 0c-4.453064 0 -8.062988 -3.5887756 -8.062988 -8.015747z" fill-rule="evenodd"/><path stroke="#424242" stroke-width="1.0" stroke-linejoin="round" stroke-linecap="butt" d="m86.38439 125.025116l0 0c0 -4.426979 3.6099243 -8.015747 8.062988 -8.015747l0 0c2.138443 0 4.189293 0.84451294 5.7014008 2.3477554c1.5121002 1.5032425 2.3615952 3.5420837 2.3615952 5.6679916l0 0c0 4.4269714 -3.6099243 8.015747 -8.062996 8.015747l0 0c-4.453064 0 -8.062988 -3.5887756 -8.062988 -8.015747z" fill-rule="evenodd"/><path fill="#6aa84f" d="m319.13184 69.52416l0 0c0 -4.426979 3.6099243 -8.015751 8.063019 -8.015751l0 0c2.1384277 0 4.18927 0.84451294 5.7013855 2.3477592c1.5121155 1.5032425 2.3616028 3.5420837 2.3616028 5.6679916l0 0c0 4.4269714 -3.6099243 8.015747 -8.062988 8.015747l0 0c-4.4530945 0 -8.063019 -3.5887756 -8.063019 -8.015747z" fill-rule="evenodd"/><path stroke="#424242" stroke-width="1.0" stroke-linejoin="round" stroke-linecap="butt" d="m319.13184 69.52416l0 0c0 -4.426979 3.6099243 -8.015751 8.063019 -8.015751l0 0c2.1384277 0 4.18927 0.84451294 5.7013855 2.3477592c1.5121155 1.5032425 2.3616028 3.5420837 2.3616028 5.6679916l0 0c0 4.4269714 -3.6099243 8.015747 -8.062988 8.015747l0 0c-4.4530945 0 -8.063019 -3.5887756 -8.063019 -8.015747z" fill-rule="evenodd"/><path fill="#6aa84f" d="m250.26842 93.060425l0 0c0 -4.426979 3.6099243 -8.015747 8.063004 -8.015747l0 0c2.1384277 0 4.18927 0.84451294 5.7013855 2.3477554c1.512085 1.5032425 2.3616028 3.5420837 2.3616028 5.6679916l0 0c0 4.4269714 -3.6099243 8.015747 -8.062988 8.015747l0 0c-4.453079 0 -8.063004 -3.5887756 -8.063004 -8.015747z" fill-rule="evenodd"/><path stroke="#424242" stroke-width="1.0" stroke-linejoin="round" stroke-linecap="butt" d="m250.26842 93.060425l0 0c0 -4.426979 3.6099243 -8.015747 8.063004 -8.015747l0 0c2.1384277 0 4.18927 0.84451294 5.7013855 2.3477554c1.512085 1.5032425 2.3616028 3.5420837 2.3616028 5.6679916l0 0c0 4.4269714 -3.6099243 8.015747 -8.062988 8.015747l0 0c-4.453079 0 -8.063004 -3.5887756 -8.063004 -8.015747z" fill-rule="evenodd"/><path fill="#6aa84f" d="m266.2684 101.060425l0 0c0 -4.426979 3.6099243 -8.015747 8.063019 -8.015747l0 0c2.1384277 0 4.18927 0.84451294 5.7013855 2.3477554c1.512085 1.5032425 2.3616028 3.5420837 2.3616028 5.6679916l0 0c0 4.4269714 -3.6099243 8.015747 -8.062988 8.015747l0 0c-4.4530945 0 -8.063019 -3.5887756 -8.063019 -8.015747z" fill-rule="evenodd"/><path stroke="#424242" stroke-width="1.0" stroke-linejoin="round" stroke-linecap="butt" d="m266.2684 101.060425l0 0c0 -4.426979 3.6099243 -8.015747 8.063019 -8.015747l0 0c2.1384277 0 4.18927 0.84451294 5.7013855 2.3477554c1.512085 1.5032425 2.3616028 3.5420837 2.3616028 5.6679916l0 0c0 4.4269714 -3.6099243 8.015747 -8.062988 8.015747l0 0c-4.4530945 0 -8.063019 -3.5887756 -8.063019 -8.015747z" fill-rule="evenodd"/><path fill="#6aa84f" d="m218.26842 85.060425l0 0c0 -4.426979 3.6099243 -8.015747 8.062988 -8.015747l0 0c2.138443 0 4.1892853 0.84451294 5.7014008 2.3477554c1.5121002 1.5032425 2.3615875 3.5420837 2.3615875 5.6679916l0 0c0 4.4269714 -3.6099243 8.015747 -8.062988 8.015747l0 0c-4.453064 0 -8.062988 -3.5887756 -8.062988 -8.015747z" fill-rule="evenodd"/><path stroke="#424242" stroke-width="1.0" stroke-linejoin="round" stroke-linecap="butt" d="m218.26842 85.060425l0 0c0 -4.426979 3.6099243 -8.015747 8.062988 -8.015747l0 0c2.138443 0 4.1892853 0.84451294 5.7014008 2.3477554c1.5121002 1.5032425 2.3615875 3.5420837 2.3615875 5.6679916l0 0c0 4.4269714 -3.6099243 8.015747 -8.062988 8.015747l0 0c-4.453064 0 -8.062988 -3.5887756 -8.062988 -8.015747z" fill-rule="evenodd"/><path fill="#6aa84f" d="m234.26842 101.060425l0 0c0 -4.426979 3.6099243 -8.015747 8.062988 -8.015747l0 0c2.138443 0 4.1892853 0.84451294 5.7014008 2.3477554c1.5121002 1.5032425 2.3615875 3.5420837 2.3615875 5.6679916l0 0c0 4.4269714 -3.6099243 8.015747 -8.062988 8.015747l0 0c-4.453064 0 -8.062988 -3.5887756 -8.062988 -8.015747z" fill-rule="evenodd"/><path stroke="#424242" stroke-width="1.0" stroke-linejoin="round" stroke-linecap="butt" d="m234.26842 101.060425l0 0c0 -4.426979 3.6099243 -8.015747 8.062988 -8.015747l0 0c2.138443 0 4.1892853 0.84451294 5.7014008 2.3477554c1.5121002 1.5032425 2.3615875 3.5420837 2.3615875 5.6679916l0 0c0 4.4269714 -3.6099243 8.015747 -8.062988 8.015747l0 0c-4.453064 0 -8.062988 -3.5887756 -8.062988 -8.015747z" fill-rule="evenodd"/><path fill="#6aa84f" d="m250.26842 117.060425l0 0c0 -4.426979 3.6099243 -8.015747 8.063004 -8.015747l0 0c2.1384277 0 4.18927 0.84451294 5.7013855 2.3477554c1.512085 1.5032425 2.3616028 3.5420837 2.3616028 5.6679916l0 0c0 4.4269714 -3.6099243 8.015747 -8.062988 8.015747l0 0c-4.453079 0 -8.063004 -3.5887756 -8.063004 -8.015747z" fill-rule="evenodd"/><path stroke="#424242" stroke-width="1.0" stroke-linejoin="round" stroke-linecap="butt" d="m250.26842 117.060425l0 0c0 -4.426979 3.6099243 -8.015747 8.063004 -8.015747l0 0c2.1384277 0 4.18927 0.84451294 5.7013855 2.3477554c1.512085 1.5032425 2.3616028 3.5420837 2.3616028 5.6679916l0 0c0 4.4269714 -3.6099243 8.015747 -8.062988 8.015747l0 0c-4.453079 0 -8.063004 -3.5887756 -8.063004 -8.015747z" fill-rule="evenodd"/><path fill="#6aa84f" d="m114.26842 133.06042l0 0c0 -4.4269714 3.6099243 -8.015747 8.062988 -8.015747l0 0c2.1384354 0 4.189293 0.84451294 5.7014008 2.3477554c1.5121002 1.5032425 2.3615875 3.542076 2.3615875 5.6679916l0 0c0 4.4269714 -3.6099243 8.015747 -8.062988 8.015747l0 0c-4.453064 0 -8.062988 -3.5887756 -8.062988 -8.015747z" fill-rule="evenodd"/><path stroke="#424242" stroke-width="1.0" stroke-linejoin="round" stroke-linecap="butt" d="m114.26842 133.06042l0 0c0 -4.4269714 3.6099243 -8.015747 8.062988 -8.015747l0 0c2.1384354 0 4.189293 0.84451294 5.7014008 2.3477554c1.5121002 1.5032425 2.3615875 3.542076 2.3615875 5.6679916l0 0c0 4.4269714 -3.6099243 8.015747 -8.062988 8.015747l0 0c-4.453064 0 -8.062988 -3.5887756 -8.062988 -8.015747z" fill-rule="evenodd"/><path fill="#6aa84f" d="m130.26842 149.06042l0 0c0 -4.4269714 3.6099243 -8.015747 8.062988 -8.015747l0 0c2.138443 0 4.1892853 0.84451294 5.7014008 2.347763c1.5121002 1.5032349 2.3615875 3.5420685 2.3615875 5.667984l0 0c0 4.4269714 -3.6099243 8.015747 -8.062988 8.015747l0 0c-4.453064 0 -8.062988 -3.5887756 -8.062988 -8.015747z" fill-rule="evenodd"/><path stroke="#424242" stroke-width="1.0" stroke-linejoin="round" stroke-linecap="butt" d="m130.26842 149.06042l0 0c0 -4.4269714 3.6099243 -8.015747 8.062988 -8.015747l0 0c2.138443 0 4.1892853 0.84451294 5.7014008 2.347763c1.5121002 1.5032349 2.3615875 3.5420685 2.3615875 5.667984l0 0c0 4.4269714 -3.6099243 8.015747 -8.062988 8.015747l0 0c-4.453064 0 -8.062988 -3.5887756 -8.062988 -8.015747z" fill-rule="evenodd"/><path fill="#6aa84f" d="m376.10846 83.93927l0 0c0 -4.426979 3.6099243 -8.015747 8.063019 -8.015747l0 0c2.1384277 0 4.18927 0.84451294 5.7013855 2.3477554c1.5121155 1.5032425 2.3616028 3.5420837 2.3616028 5.6679916l0 0c0 4.4269714 -3.6099243 8.015747 -8.062988 8.015747l0 0c-4.4530945 0 -8.063019 -3.5887756 -8.063019 -8.015747z" fill-rule="evenodd"/><path stroke="#424242" stroke-width="1.0" stroke-linejoin="round" stroke-linecap="butt" d="m376.10846 83.93927l0 0c0 -4.426979 3.6099243 -8.015747 8.063019 -8.015747l0 0c2.1384277 0 4.18927 0.84451294 5.7013855 2.3477554c1.5121155 1.5032425 2.3616028 3.5420837 2.3616028 5.6679916l0 0c0 4.4269714 -3.6099243 8.015747 -8.062988 8.015747l0 0c-4.4530945 0 -8.063019 -3.5887756 -8.063019 -8.015747z" fill-rule="evenodd"/><path fill="#6aa84f" d="m278.16885 69.52351l0 0c0 -4.4269714 3.6099243 -8.015747 8.062988 -8.015747l0 0c2.1384277 0 4.18927 0.84451294 5.7013855 2.3477592c1.5121155 1.5032463 2.3616028 3.54208 2.3616028 5.667988l0 0c0 4.426979 -3.6099243 8.015747 -8.062988 8.015747l0 0c-4.453064 0 -8.062988 -3.588768 -8.062988 -8.015747z" fill-rule="evenodd"/><path stroke="#424242" stroke-width="1.0" stroke-linejoin="round" stroke-linecap="butt" d="m278.16885 69.52351l0 0c0 -4.4269714 3.6099243 -8.015747 8.062988 -8.015747l0 0c2.1384277 0 4.18927 0.84451294 5.7013855 2.3477592c1.5121155 1.5032463 2.3616028 3.54208 2.3616028 5.667988l0 0c0 4.426979 -3.6099243 8.015747 -8.062988 8.015747l0 0c-4.453064 0 -8.062988 -3.588768 -8.062988 -8.015747z" fill-rule="evenodd"/><path fill="#6aa84f" d="m367.13184 61.52416l0 0c0 -4.4269753 3.6099243 -8.015747 8.063019 -8.015747l0 0c2.1384277 0 4.18927 0.84451294 5.7013855 2.3477592c1.5121155 1.5032425 2.3616028 3.54208 2.3616028 5.667988l0 0c0 4.4269753 -3.6099243 8.015751 -8.062988 8.015751l0 0c-4.4530945 0 -8.063019 -3.5887756 -8.063019 -8.015751z" fill-rule="evenodd"/><path stroke="#424242" stroke-width="1.0" stroke-linejoin="round" stroke-linecap="butt" d="m367.13184 61.52416l0 0c0 -4.4269753 3.6099243 -8.015747 8.063019 -8.015747l0 0c2.1384277 0 4.18927 0.84451294 5.7013855 2.3477592c1.5121155 1.5032425 2.3616028 3.54208 2.3616028 5.667988l0 0c0 4.4269753 -3.6099243 8.015751 -8.062988 8.015751l0 0c-4.4530945 0 -8.063019 -3.5887756 -8.063019 -8.015751z" fill-rule="evenodd"/><path fill="#6aa84f" d="m343.13184 85.52416l0 0c0 -4.426979 3.6099243 -8.015747 8.063019 -8.015747l0 0c2.1384277 0 4.18927 0.84451294 5.7013855 2.3477554c1.5121155 1.5032425 2.3616028 3.5420837 2.3616028 5.6679916l0 0c0 4.4269714 -3.6099243 8.015747 -8.062988 8.015747l0 0c-4.4530945 0 -8.063019 -3.5887756 -8.063019 -8.015747z" fill-rule="evenodd"/><path stroke="#424242" stroke-width="1.0" stroke-linejoin="round" stroke-linecap="butt" d="m343.13184 85.52416l0 0c0 -4.426979 3.6099243 -8.015747 8.063019 -8.015747l0 0c2.1384277 0 4.18927 0.84451294 5.7013855 2.3477554c1.5121155 1.5032425 2.3616028 3.5420837 2.3616028 5.6679916l0 0c0 4.4269714 -3.6099243 8.015747 -8.062988 8.015747l0 0c-4.4530945 0 -8.063019 -3.5887756 -8.063019 -8.015747z" fill-rule="evenodd"/><path fill="#6aa84f" d="m282.2684 117.060425l0 0c0 -4.426979 3.6099243 -8.015747 8.063019 -8.015747l0 0c2.1384277 0 4.18927 0.84451294 5.7013855 2.3477554c1.512085 1.5032425 2.3616028 3.5420837 2.3616028 5.6679916l0 0c0 4.4269714 -3.6099243 8.015747 -8.062988 8.015747l0 0c-4.4530945 0 -8.063019 -3.5887756 -8.063019 -8.015747z" fill-rule="evenodd"/><path stroke="#424242" stroke-width="1.0" stroke-linejoin="round" stroke-linecap="butt" d="m282.2684 117.060425l0 0c0 -4.426979 3.6099243 -8.015747 8.063019 -8.015747l0 0c2.1384277 0 4.18927 0.84451294 5.7013855 2.3477554c1.512085 1.5032425 2.3616028 3.5420837 2.3616028 5.6679916l0 0c0 4.4269714 -3.6099243 8.015747 -8.062988 8.015747l0 0c-4.4530945 0 -8.063019 -3.5887756 -8.063019 -8.015747z" fill-rule="evenodd"/><path fill="#6aa84f" d="m198.50906 125.949l0 0c0 -4.4269714 3.6099243 -8.015747 8.062988 -8.015747l0 0c2.138443 0 4.1893005 0.84451294 5.7014008 2.3477554c1.5121002 1.5032501 2.3615875 3.5420837 2.3615875 5.6679916l0 0c0 4.426979 -3.6099243 8.015755 -8.062988 8.015755l0 0c-4.453064 0 -8.062988 -3.5887756 -8.062988 -8.015755z" fill-rule="evenodd"/><path stroke="#424242" stroke-width="1.0" stroke-linejoin="round" stroke-linecap="butt" d="m198.50906 125.949l0 0c0 -4.4269714 3.6099243 -8.015747 8.062988 -8.015747l0 0c2.138443 0 4.1893005 0.84451294 5.7014008 2.3477554c1.5121002 1.5032501 2.3615875 3.5420837 2.3615875 5.6679916l0 0c0 4.426979 -3.6099243 8.015755 -8.062988 8.015755l0 0c-4.453064 0 -8.062988 -3.5887756 -8.062988 -8.015755z" fill-rule="evenodd"/><path fill="#6aa84f" d="m203.07378 141.949l0 0c0 -4.4269867 3.6099243 -8.015762 8.062988 -8.015762l0 0c2.138443 0 4.1892853 0.8445282 5.7014008 2.347763c1.5121002 1.5032501 2.3615875 3.5420837 2.3615875 5.6679993l0 0c0 4.4269714 -3.6099243 8.015747 -8.062988 8.015747l0 0c-4.453064 0 -8.062988 -3.5887756 -8.062988 -8.015747z" fill-rule="evenodd"/><path stroke="#424242" stroke-width="1.0" stroke-linejoin="round" stroke-linecap="butt" d="m203.07378 141.949l0 0c0 -4.4269867 3.6099243 -8.015762 8.062988 -8.015762l0 0c2.138443 0 4.1892853 0.8445282 5.7014008 2.347763c1.5121002 1.5032501 2.3615875 3.5420837 2.3615875 5.6679993l0 0c0 4.4269714 -3.6099243 8.015747 -8.062988 8.015747l0 0c-4.453064 0 -8.062988 -3.5887756 -8.062988 -8.015747z" fill-rule="evenodd"/><path fill="#6aa84f" d="m230.50906 133.949l0 0c0 -4.4269867 3.6099243 -8.015755 8.062988 -8.015755l0 0c2.138443 0 4.1893005 0.84451294 5.7014008 2.3477554c1.5121002 1.5032501 2.3615875 3.5420837 2.3615875 5.6679993l0 0c0 4.4269714 -3.6099243 8.015747 -8.062988 8.015747l0 0c-4.453064 0 -8.062988 -3.5887756 -8.062988 -8.015747z" fill-rule="evenodd"/><path stroke="#424242" stroke-width="1.0" stroke-linejoin="round" stroke-linecap="butt" d="m230.50906 133.949l0 0c0 -4.4269867 3.6099243 -8.015755 8.062988 -8.015755l0 0c2.138443 0 4.1893005 0.84451294 5.7014008 2.3477554c1.5121002 1.5032501 2.3615875 3.5420837 2.3615875 5.6679993l0 0c0 4.4269714 -3.6099243 8.015747 -8.062988 8.015747l0 0c-4.453064 0 -8.062988 -3.5887756 -8.062988 -8.015747z" fill-rule="evenodd"/><path fill="#6aa84f" d="m298.2684 93.060425l0 0c0 -4.426979 3.6099243 -8.015747 8.063019 -8.015747l0 0c2.1384277 0 4.18927 0.84451294 5.7013855 2.3477554c1.512085 1.5032425 2.3616028 3.5420837 2.3616028 5.6679916l0 0c0 4.4269714 -3.6099243 8.015747 -8.062988 8.015747l0 0c-4.4530945 0 -8.063019 -3.5887756 -8.063019 -8.015747z" fill-rule="evenodd"/><path stroke="#424242" stroke-width="1.0" stroke-linejoin="round" stroke-linecap="butt" d="m298.2684 93.060425l0 0c0 -4.426979 3.6099243 -8.015747 8.063019 -8.015747l0 0c2.1384277 0 4.18927 0.84451294 5.7013855 2.3477554c1.512085 1.5032425 2.3616028 3.5420837 2.3616028 5.6679916l0 0c0 4.4269714 -3.6099243 8.015747 -8.062988 8.015747l0 0c-4.4530945 0 -8.063019 -3.5887756 -8.063019 -8.015747z" fill-rule="evenodd"/><path fill="#6aa84f" d="m242.26842 61.060425l0 0c0 -4.4269753 3.6099243 -8.015747 8.062988 -8.015747l0 0c2.138443 0 4.1892853 0.84451294 5.7014008 2.3477554c1.512085 1.5032463 2.3616028 3.5420837 2.3616028 5.6679916l0 0c0 4.4269714 -3.6099396 8.015747 -8.063004 8.015747l0 0c-4.453064 0 -8.062988 -3.5887756 -8.062988 -8.015747z" fill-rule="evenodd"/><path stroke="#424242" stroke-width="1.0" stroke-linejoin="round" stroke-linecap="butt" d="m242.26842 61.060425l0 0c0 -4.4269753 3.6099243 -8.015747 8.062988 -8.015747l0 0c2.138443 0 4.1892853 0.84451294 5.7014008 2.3477554c1.512085 1.5032463 2.3616028 3.5420837 2.3616028 5.6679916l0 0c0 4.4269714 -3.6099396 8.015747 -8.063004 8.015747l0 0c-4.453064 0 -8.062988 -3.5887756 -8.062988 -8.015747z" fill-rule="evenodd"/><path fill="#6aa84f" d="m258.2684 77.060425l0 0c0 -4.426979 3.6099243 -8.015747 8.063019 -8.015747l0 0c2.1384277 0 4.18927 0.84451294 5.7013855 2.3477554c1.512085 1.5032425 2.3616028 3.5420837 2.3616028 5.6679916l0 0c0 4.4269714 -3.6099243 8.015747 -8.062988 8.015747l0 0c-4.4530945 0 -8.063019 -3.5887756 -8.063019 -8.015747z" fill-rule="evenodd"/><path stroke="#424242" stroke-width="1.0" stroke-linejoin="round" stroke-linecap="butt" d="m258.2684 77.060425l0 0c0 -4.426979 3.6099243 -8.015747 8.063019 -8.015747l0 0c2.1384277 0 4.18927 0.84451294 5.7013855 2.3477554c1.512085 1.5032425 2.3616028 3.5420837 2.3616028 5.6679916l0 0c0 4.4269714 -3.6099243 8.015747 -8.062988 8.015747l0 0c-4.4530945 0 -8.063019 -3.5887756 -8.063019 -8.015747z" fill-rule="evenodd"/><path fill="#6aa84f" d="m274.2684 45.060425l0 0c0 -4.4269753 3.6099243 -8.015747 8.063019 -8.015747l0 0c2.1384277 0 4.18927 0.84451294 5.7013855 2.3477554c1.512085 1.5032463 2.3616028 3.5420837 2.3616028 5.6679916l0 0c0 4.4269753 -3.6099243 8.015747 -8.062988 8.015747l0 0c-4.4530945 0 -8.063019 -3.5887718 -8.063019 -8.015747z" fill-rule="evenodd"/><path stroke="#424242" stroke-width="1.0" stroke-linejoin="round" stroke-linecap="butt" d="m274.2684 45.060425l0 0c0 -4.4269753 3.6099243 -8.015747 8.063019 -8.015747l0 0c2.1384277 0 4.18927 0.84451294 5.7013855 2.3477554c1.512085 1.5032463 2.3616028 3.5420837 2.3616028 5.6679916l0 0c0 4.4269753 -3.6099243 8.015747 -8.062988 8.015747l0 0c-4.4530945 0 -8.063019 -3.5887718 -8.063019 -8.015747z" fill-rule="evenodd"/><path fill="#6aa84f" d="m298.2684 69.060425l0 0c0 -4.426979 3.6099243 -8.015747 8.063019 -8.015747l0 0c2.1384277 0 4.18927 0.84451294 5.7013855 2.3477554c1.512085 1.5032425 2.3616028 3.5420837 2.3616028 5.6679916l0 0c0 4.4269714 -3.6099243 8.015747 -8.062988 8.015747l0 0c-4.4530945 0 -8.063019 -3.5887756 -8.063019 -8.015747z" fill-rule="evenodd"/><path stroke="#424242" stroke-width="1.0" stroke-linejoin="round" stroke-linecap="butt" d="m298.2684 69.060425l0 0c0 -4.426979 3.6099243 -8.015747 8.063019 -8.015747l0 0c2.1384277 0 4.18927 0.84451294 5.7013855 2.3477554c1.512085 1.5032425 2.3616028 3.5420837 2.3616028 5.6679916l0 0c0 4.4269714 -3.6099243 8.015747 -8.062988 8.015747l0 0c-4.4530945 0 -8.063019 -3.5887756 -8.063019 -8.015747z" fill-rule="evenodd"/><path fill="#6aa84f" d="m306.2684 125.060425l0 0c0 -4.426979 3.6099243 -8.015747 8.063019 -8.015747l0 0c2.1384277 0 4.18927 0.84451294 5.7013855 2.3477554c1.512085 1.5032425 2.3616028 3.5420837 2.3616028 5.6679916l0 0c0 4.4269714 -3.6099243 8.015747 -8.062988 8.015747l0 0c-4.4530945 0 -8.063019 -3.5887756 -8.063019 -8.015747z" fill-rule="evenodd"/><path stroke="#424242" stroke-width="1.0" stroke-linejoin="round" stroke-linecap="butt" d="m306.2684 125.060425l0 0c0 -4.426979 3.6099243 -8.015747 8.063019 -8.015747l0 0c2.1384277 0 4.18927 0.84451294 5.7013855 2.3477554c1.512085 1.5032425 2.3616028 3.5420837 2.3616028 5.6679916l0 0c0 4.4269714 -3.6099243 8.015747 -8.062988 8.015747l0 0c-4.4530945 0 -8.063019 -3.5887756 -8.063019 -8.015747z" fill-rule="evenodd"/></g></svg>