<svg version="1.1" viewBox="0.0 0.0 663.2493438320209 276.29133858267716" fill="none" stroke="none" stroke-linecap="square" stroke-miterlimit="10" xmlns:xlink="http://www.w3.org/1999/xlink" xmlns="http://www.w3.org/2000/svg"><clipPath id="p.0"><path d="m0 0l663.2493 0l0 276.29135l-663.2493 0l0 -276.29135z" clip-rule="nonzero"/></clipPath><g clip-path="url(#p.0)"><path fill="#000000" fill-opacity="0.0" d="m0 0l663.2493 0l0 276.29135l-663.2493 0z" fill-rule="evenodd"/><path fill="#4285f4" d="m392.07214 100.09209l0 0c0 -4.426979 3.6099243 -8.015747 8.062988 -8.015747l0 0c2.1384277 0 4.1893005 0.84451294 5.7013855 2.3477554c1.5121155 1.5032425 2.3616028 3.5420837 2.3616028 5.6679916l0 0c0 4.4269714 -3.6099243 8.015747 -8.062988 8.015747l0 0c-4.453064 0 -8.062988 -3.5887756 -8.062988 -8.015747z" fill-rule="evenodd"/><path stroke="#424242" stroke-width="1.0" stroke-linejoin="round" stroke-linecap="butt" d="m392.07214 100.09209l0 0c0 -4.426979 3.6099243 -8.015747 8.062988 -8.015747l0 0c2.1384277 0 4.1893005 0.84451294 5.7013855 2.3477554c1.5121155 1.5032425 2.3616028 3.5420837 2.3616028 5.6679916l0 0c0 4.4269714 -3.6099243 8.015747 -8.062988 8.015747l0 0c-4.453064 0 -8.062988 -3.5887756 -8.062988 -8.015747z" fill-rule="evenodd"/><path fill="#db4437" d="m449.6836 135.64034l0 0c0 -4.4269714 3.6099243 -8.015747 8.062988 -8.015747l0 0c2.1384583 0 4.1893005 0.84451294 5.701416 2.3477478c1.512085 1.5032501 2.3616028 3.5420837 2.3616028 5.6679993l0 0c0 4.4269714 -3.6099243 8.015747 -8.063019 8.015747l0 0c-4.453064 0 -8.062988 -3.5887756 -8.062988 -8.015747z" fill-rule="evenodd"/><path stroke="#424242" stroke-width="1.0" stroke-linejoin="round" stroke-linecap="butt" d="m449.6836 135.64034l0 0c0 -4.4269714 3.6099243 -8.015747 8.062988 -8.015747l0 0c2.1384583 0 4.1893005 0.84451294 5.701416 2.3477478c1.512085 1.5032501 2.3616028 3.5420837 2.3616028 5.6679993l0 0c0 4.4269714 -3.6099243 8.015747 -8.063019 8.015747l0 0c-4.453064 0 -8.062988 -3.5887756 -8.062988 -8.015747z" fill-rule="evenodd"/><path fill="#db4437" d="m510.04315 111.97112l0 0c0 -4.4269714 3.6099243 -8.015747 8.062988 -8.015747l0 0c2.1384277 0 4.18927 0.84451294 5.701416 2.3477554c1.512085 1.5032501 2.3615723 3.5420837 2.3615723 5.6679916l0 0c0 4.426979 -3.6099243 8.015747 -8.062988 8.015747l0 0c-4.453064 0 -8.062988 -3.588768 -8.062988 -8.015747z" fill-rule="evenodd"/><path stroke="#424242" stroke-width="1.0" stroke-linejoin="round" stroke-linecap="butt" d="m510.04315 111.97112l0 0c0 -4.4269714 3.6099243 -8.015747 8.062988 -8.015747l0 0c2.1384277 0 4.18927 0.84451294 5.701416 2.3477554c1.512085 1.5032501 2.3615723 3.5420837 2.3615723 5.6679916l0 0c0 4.426979 -3.6099243 8.015747 -8.062988 8.015747l0 0c-4.453064 0 -8.062988 -3.588768 -8.062988 -8.015747z" fill-rule="evenodd"/><path fill="#4285f4" d="m340.81693 111.64103l0 0c0 -4.4269714 3.6099243 -8.015747 8.062988 -8.015747l0 0c2.1384583 0 4.1893005 0.84451294 5.701416 2.3477554c1.512085 1.5032501 2.3615723 3.5420837 2.3615723 5.6679916l0 0c0 4.426979 -3.6099243 8.015747 -8.062988 8.015747l0 0c-4.453064 0 -8.062988 -3.588768 -8.062988 -8.015747z" fill-rule="evenodd"/><path stroke="#424242" stroke-width="1.0" stroke-linejoin="round" stroke-linecap="butt" d="m340.81693 111.64103l0 0c0 -4.4269714 3.6099243 -8.015747 8.062988 -8.015747l0 0c2.1384583 0 4.1893005 0.84451294 5.701416 2.3477554c1.512085 1.5032501 2.3615723 3.5420837 2.3615723 5.6679916l0 0c0 4.426979 -3.6099243 8.015747 -8.062988 8.015747l0 0c-4.453064 0 -8.062988 -3.588768 -8.062988 -8.015747z" fill-rule="evenodd"/><path fill="#db4437" d="m334.24915 167.9415l0 0c0 -4.4269867 3.6099243 -8.015747 8.062988 -8.015747l0 0c2.1384277 0 4.1893005 0.84451294 5.7013855 2.3477478c1.5121155 1.5032501 2.3616028 3.5420837 2.3616028 5.6679993l0 0c0 4.4269714 -3.6099243 8.015747 -8.062988 8.015747l0 0c-4.453064 0 -8.062988 -3.5887756 -8.062988 -8.015747z" fill-rule="evenodd"/><path stroke="#424242" stroke-width="1.0" stroke-linejoin="round" stroke-linecap="butt" d="m334.24915 167.9415l0 0c0 -4.4269867 3.6099243 -8.015747 8.062988 -8.015747l0 0c2.1384277 0 4.1893005 0.84451294 5.7013855 2.3477478c1.5121155 1.5032501 2.3616028 3.5420837 2.3616028 5.6679993l0 0c0 4.4269714 -3.6099243 8.015747 -8.062988 8.015747l0 0c-4.453064 0 -8.062988 -3.5887756 -8.062988 -8.015747z" fill-rule="evenodd"/><path fill="#db4437" d="m560.10846 67.93927l0 0c0 -4.4269753 3.6099243 -8.015751 8.062988 -8.015751l0 0c2.1384277 0 4.189331 0.84451675 5.701416 2.3477592c1.512085 1.5032463 2.3615723 3.5420837 2.3615723 5.6679916l0 0c0 4.4269714 -3.6099243 8.015747 -8.062988 8.015747l0 0c-4.453064 0 -8.062988 -3.5887756 -8.062988 -8.015747z" fill-rule="evenodd"/><path stroke="#424242" stroke-width="1.0" stroke-linejoin="round" stroke-linecap="butt" d="m560.10846 67.93927l0 0c0 -4.4269753 3.6099243 -8.015751 8.062988 -8.015751l0 0c2.1384277 0 4.189331 0.84451675 5.701416 2.3477592c1.512085 1.5032463 2.3615723 3.5420837 2.3615723 5.6679916l0 0c0 4.4269714 -3.6099243 8.015747 -8.062988 8.015747l0 0c-4.453064 0 -8.062988 -3.5887756 -8.062988 -8.015747z" fill-rule="evenodd"/><path fill="#4285f4" d="m418.1406 83.97303l0 0c0 -4.4269714 3.6099243 -8.015747 8.062988 -8.015747l0 0c2.1384277 0 4.1893005 0.84451294 5.7013855 2.3477554c1.5121155 1.5032501 2.3616028 3.5420837 2.3616028 5.6679916l0 0c0 4.426979 -3.6099243 8.015747 -8.062988 8.015747l0 0c-4.453064 0 -8.062988 -3.588768 -8.062988 -8.015747z" fill-rule="evenodd"/><path stroke="#424242" stroke-width="1.0" stroke-linejoin="round" stroke-linecap="butt" d="m418.1406 83.97303l0 0c0 -4.4269714 3.6099243 -8.015747 8.062988 -8.015747l0 0c2.1384277 0 4.1893005 0.84451294 5.7013855 2.3477554c1.5121155 1.5032501 2.3616028 3.5420837 2.3616028 5.6679916l0 0c0 4.426979 -3.6099243 8.015747 -8.062988 8.015747l0 0c-4.453064 0 -8.062988 -3.588768 -8.062988 -8.015747z" fill-rule="evenodd"/><path fill="#db4437" d="m366.50906 157.949l0 0c0 -4.4269867 3.6099243 -8.015762 8.062988 -8.015762l0 0c2.1384277 0 4.1893005 0.8445282 5.7013855 2.347763c1.5121155 1.5032501 2.3616028 3.5420837 2.3616028 5.6679993l0 0c0 4.4269714 -3.6099243 8.015747 -8.062988 8.015747l0 0c-4.453064 0 -8.062988 -3.5887756 -8.062988 -8.015747z" fill-rule="evenodd"/><path stroke="#424242" stroke-width="1.0" stroke-linejoin="round" stroke-linecap="butt" d="m366.50906 157.949l0 0c0 -4.4269867 3.6099243 -8.015762 8.062988 -8.015762l0 0c2.1384277 0 4.1893005 0.8445282 5.7013855 2.347763c1.5121155 1.5032501 2.3616028 3.5420837 2.3616028 5.6679993l0 0c0 4.4269714 -3.6099243 8.015747 -8.062988 8.015747l0 0c-4.453064 0 -8.062988 -3.5887756 -8.062988 -8.015747z" fill-rule="evenodd"/><path fill="#db4437" d="m306.51077 165.06097l0 0c0 -4.4269714 3.6099243 -8.015747 8.063019 -8.015747l0 0c2.1384277 0 4.18927 0.84451294 5.7013855 2.347763c1.5121155 1.5032349 2.3616028 3.5420837 2.3616028 5.667984l0 0c0 4.4269714 -3.6099243 8.015747 -8.062988 8.015747l0 0c-4.4530945 0 -8.063019 -3.5887756 -8.063019 -8.015747z" fill-rule="evenodd"/><path stroke="#424242" stroke-width="1.0" stroke-linejoin="round" stroke-linecap="butt" d="m306.51077 165.06097l0 0c0 -4.4269714 3.6099243 -8.015747 8.063019 -8.015747l0 0c2.1384277 0 4.18927 0.84451294 5.7013855 2.347763c1.5121155 1.5032349 2.3616028 3.5420837 2.3616028 5.667984l0 0c0 4.4269714 -3.6099243 8.015747 -8.062988 8.015747l0 0c-4.4530945 0 -8.063019 -3.5887756 -8.063019 -8.015747z" fill-rule="evenodd"/><path fill="#db4437" d="m434.2684 165.06042l0 0c0 -4.4269714 3.6099243 -8.015747 8.063019 -8.015747l0 0c2.1384277 0 4.18927 0.84451294 5.7013855 2.347763c1.512085 1.5032349 2.3616028 3.5420685 2.3616028 5.667984l0 0c0 4.4269714 -3.6099243 8.015747 -8.062988 8.015747l0 0c-4.4530945 0 -8.063019 -3.5887756 -8.063019 -8.015747z" fill-rule="evenodd"/><path stroke="#424242" stroke-width="1.0" stroke-linejoin="round" stroke-linecap="butt" d="m434.2684 165.06042l0 0c0 -4.4269714 3.6099243 -8.015747 8.063019 -8.015747l0 0c2.1384277 0 4.18927 0.84451294 5.7013855 2.347763c1.512085 1.5032349 2.3616028 3.5420685 2.3616028 5.667984l0 0c0 4.4269714 -3.6099243 8.015747 -8.062988 8.015747l0 0c-4.4530945 0 -8.063019 -3.5887756 -8.063019 -8.015747z" fill-rule="evenodd"/><path fill="#db4437" d="m482.1745 128.01181l0 0c0 -4.426979 3.6099243 -8.015755 8.062988 -8.015755l0 0c2.1384277 0 4.1893005 0.84451294 5.7013855 2.347763c1.5121155 1.5032425 2.3616028 3.542076 2.3616028 5.6679916l0 0c0 4.4269714 -3.6099243 8.015747 -8.062988 8.015747l0 0c-4.453064 0 -8.062988 -3.5887756 -8.062988 -8.015747z" fill-rule="evenodd"/><path stroke="#424242" stroke-width="1.0" stroke-linejoin="round" stroke-linecap="butt" d="m482.1745 128.01181l0 0c0 -4.426979 3.6099243 -8.015755 8.062988 -8.015755l0 0c2.1384277 0 4.1893005 0.84451294 5.7013855 2.347763c1.5121155 1.5032425 2.3616028 3.542076 2.3616028 5.6679916l0 0c0 4.4269714 -3.6099243 8.015747 -8.062988 8.015747l0 0c-4.453064 0 -8.062988 -3.5887756 -8.062988 -8.015747z" fill-rule="evenodd"/><path fill="#4285f4" d="m494.16885 37.523514l0 0c0 -4.4269753 3.6099243 -8.015747 8.062988 -8.015747l0 0c2.1384277 0 4.18927 0.84451294 5.7013855 2.3477573c1.5121155 1.5032444 2.3616028 3.5420818 2.3616028 5.6679897l0 0c0 4.4269753 -3.6099243 8.015747 -8.062988 8.015747l0 0c-4.453064 0 -8.062988 -3.5887718 -8.062988 -8.015747z" fill-rule="evenodd"/><path stroke="#424242" stroke-width="1.0" stroke-linejoin="round" stroke-linecap="butt" d="m494.16885 37.523514l0 0c0 -4.4269753 3.6099243 -8.015747 8.062988 -8.015747l0 0c2.1384277 0 4.18927 0.84451294 5.7013855 2.3477573c1.5121155 1.5032444 2.3616028 3.5420818 2.3616028 5.6679897l0 0c0 4.4269753 -3.6099243 8.015747 -8.062988 8.015747l0 0c-4.453064 0 -8.062988 -3.5887718 -8.062988 -8.015747z" fill-rule="evenodd"/><path fill="#db4437" d="m591.13184 37.52416l0 0c0 -4.4269753 3.6099243 -8.015747 8.062988 -8.015747l0 0c2.1384277 0 4.189331 0.84451485 5.701416 2.3477592c1.512085 1.5032425 2.3615723 3.54208 2.3615723 5.667988l0 0c0 4.426979 -3.6099243 8.015751 -8.062988 8.015751l0 0c-4.453064 0 -8.062988 -3.5887718 -8.062988 -8.015751z" fill-rule="evenodd"/><path stroke="#424242" stroke-width="1.0" stroke-linejoin="round" stroke-linecap="butt" d="m591.13184 37.52416l0 0c0 -4.4269753 3.6099243 -8.015747 8.062988 -8.015747l0 0c2.1384277 0 4.189331 0.84451485 5.701416 2.3477592c1.512085 1.5032425 2.3615723 3.54208 2.3615723 5.667988l0 0c0 4.426979 -3.6099243 8.015751 -8.062988 8.015751l0 0c-4.453064 0 -8.062988 -3.5887718 -8.062988 -8.015751z" fill-rule="evenodd"/><path fill="#db4437" d="m277.44165 189.24231l0 0c0 -4.4269867 3.6099243 -8.015747 8.062988 -8.015747l0 0c2.1384277 0 4.1893005 0.84451294 5.7013855 2.3477478c1.5121155 1.5032501 2.3616028 3.5420837 2.3616028 5.6679993l0 0c0 4.4269714 -3.6099243 8.015747 -8.062988 8.015747l0 0c-4.453064 0 -8.062988 -3.5887756 -8.062988 -8.015747z" fill-rule="evenodd"/><path stroke="#424242" stroke-width="1.0" stroke-linejoin="round" stroke-linecap="butt" d="m277.44165 189.24231l0 0c0 -4.4269867 3.6099243 -8.015747 8.062988 -8.015747l0 0c2.1384277 0 4.1893005 0.84451294 5.7013855 2.3477478c1.5121155 1.5032501 2.3616028 3.5420837 2.3616028 5.6679993l0 0c0 4.4269714 -3.6099243 8.015747 -8.062988 8.015747l0 0c-4.453064 0 -8.062988 -3.5887756 -8.062988 -8.015747z" fill-rule="evenodd"/><path fill="#000000" fill-opacity="0.0" d="m252.04724 241.01128l402.17322 0" fill-rule="evenodd"/><path stroke="#424242" stroke-width="8.0" stroke-linejoin="round" stroke-linecap="butt" d="m252.04724 241.01128l402.17322 0" fill-rule="evenodd"/><path fill="#000000" fill-opacity="0.0" d="m256.50394 241.01128l0 -224.06299" fill-rule="evenodd"/><path stroke="#424242" stroke-width="8.0" stroke-linejoin="round" stroke-linecap="butt" d="m256.50394 241.01128l0 -224.06299" fill-rule="evenodd"/><path fill="#000000" fill-opacity="0.0" d="m423.1811 234.96404l51.118134 0l0 35.527542l-51.118134 0z" fill-rule="evenodd"/><path fill="#000000" d="m435.75922 257.00903l-2.40625 -4.640625l1.796875 0l1.75 3.515625l0.015625 0l2.9375 -3.515625l1.921875 0l-4.140625 4.734375l2.53125 4.78125l-1.796875 0l-1.828125 -3.65625l-0.015625 0l-3.03125 3.65625l-1.90625 0l4.171875 -4.875z" fill-rule="nonzero"/><path fill="#000000" d="m444.51367 261.8684l-1.578125 1.0625l-0.5 -0.8125l2.703125 -1.734375l0.703125 0l-1.515625 8.5l-1.03125 0l1.21875 -7.015625z" fill-rule="nonzero"/><path fill="#000000" fill-opacity="0.0" d="m217.77953 111.98765l38.29921 0l0 35.527565l-38.29921 0z" fill-rule="evenodd"/><path fill="#000000" d="m230.35765 134.03265l-2.40625 -4.640625l1.796875 0l1.75 3.515625l0.015625 0l2.9375 -3.515625l1.921875 0l-4.140625 4.734375l2.53125 4.78125l-1.796875 0l-1.828125 -3.65625l-0.015625 0l-3.03125 3.65625l-1.90625 0l4.171875 -4.875z" fill-rule="nonzero"/><path fill="#000000" d="m236.04959 144.84515q0.4375 -0.375 1.578125 -1.359375q1.140625 -1.0 2.09375 -1.828125q0.5 -0.453125 0.78125 -0.734375q0.28125 -0.296875 0.453125 -0.640625q0.171875 -0.34375 0.171875 -0.75q0 -0.609375 -0.375 -0.96875q-0.375 -0.359375 -1.046875 -0.359375q-0.65625 0 -1.09375 0.40625q-0.4375 0.390625 -0.609375 0.875l-0.953125 -0.421875q0.296875 -0.75 0.984375 -1.296875q0.703125 -0.5625 1.8125 -0.5625q0.671875 0 1.21875 0.28125q0.546875 0.28125 0.84375 0.78125q0.3125 0.484375 0.3125 1.09375q0 0.609375 -0.25 1.109375q-0.234375 0.5 -0.609375 0.921875q-0.375 0.40625 -0.984375 0.953125l-2.96875 2.5625l3.984375 0l-0.15625 1.0l-5.375 0l0.1875 -1.0625z" fill-rule="nonzero"/><path fill="#db4437" d="m398.50906 149.949l0 0c0 -4.4269867 3.6099243 -8.015762 8.062988 -8.015762l0 0c2.1384277 0 4.1893005 0.8445282 5.7013855 2.347763c1.5121155 1.5032501 2.3616028 3.5420837 2.3616028 5.6679993l0 0c0 4.4269714 -3.6099243 8.015747 -8.062988 8.015747l0 0c-4.453064 0 -8.062988 -3.5887756 -8.062988 -8.015747z" fill-rule="evenodd"/><path stroke="#424242" stroke-width="1.0" stroke-linejoin="round" stroke-linecap="butt" d="m398.50906 149.949l0 0c0 -4.4269867 3.6099243 -8.015762 8.062988 -8.015762l0 0c2.1384277 0 4.1893005 0.8445282 5.7013855 2.347763c1.5121155 1.5032501 2.3616028 3.5420837 2.3616028 5.6679993l0 0c0 4.4269714 -3.6099243 8.015747 -8.062988 8.015747l0 0c-4.453064 0 -8.062988 -3.5887756 -8.062988 -8.015747z" fill-rule="evenodd"/><path fill="#4285f4" d="m559.13184 13.52416l0 0c0 -4.4269753 3.6099243 -8.015748 8.062988 -8.015748l0 0c2.1384277 0 4.189331 0.8445139 5.701416 2.3477583c1.512085 1.5032444 2.3615723 3.5420809 2.3615723 5.6679897l0 0c0 4.4269753 -3.6099243 8.015747 -8.062988 8.015747l0 0c-4.453064 0 -8.062988 -3.5887718 -8.062988 -8.015747z" fill-rule="evenodd"/><path stroke="#424242" stroke-width="1.0" stroke-linejoin="round" stroke-linecap="butt" d="m559.13184 13.52416l0 0c0 -4.4269753 3.6099243 -8.015748 8.062988 -8.015748l0 0c2.1384277 0 4.189331 0.8445139 5.701416 2.3477583c1.512085 1.5032444 2.3615723 3.5420809 2.3615723 5.6679897l0 0c0 4.4269753 -3.6099243 8.015747 -8.062988 8.015747l0 0c-4.453064 0 -8.062988 -3.5887718 -8.062988 -8.015747z" fill-rule="evenodd"/><path fill="#4285f4" d="m14.384392 197.02512l0 0c0 -4.4269714 3.6099243 -8.015747 8.062992 -8.015747l0 0c2.1384373 0 4.189291 0.84451294 5.701397 2.3477478c1.512104 1.5032501 2.3615952 3.5420837 2.3615952 5.6679993l0 0c0 4.4269714 -3.6099243 8.015747 -8.062992 8.015747l0 0c-4.453068 0 -8.062992 -3.5887756 -8.062992 -8.015747z" fill-rule="evenodd"/><path stroke="#424242" stroke-width="1.0" stroke-linejoin="round" stroke-linecap="butt" d="m14.384392 197.02512l0 0c0 -4.4269714 3.6099243 -8.015747 8.062992 -8.015747l0 0c2.1384373 0 4.189291 0.84451294 5.701397 2.3477478c1.512104 1.5032501 2.3615952 3.5420837 2.3615952 5.6679993l0 0c0 4.4269714 -3.6099243 8.015747 -8.062992 8.015747l0 0c-4.453068 0 -8.062992 -3.5887756 -8.062992 -8.015747z" fill-rule="evenodd"/><path fill="#000000" fill-opacity="0.0" d="m37.75656 176.03018l181.25984 0l0 35.527557l-181.25984 0z" fill-rule="evenodd"/><path fill="#000000" d="m52.75656 203.24706q-1.078125 0 -1.953125 -0.484375q-0.859375 -0.5 -1.28125 -1.21875l-0.078125 0l0 1.40625l-1.515625 0l0 -13.359375l1.59375 0l0 3.9375l-0.078125 1.328125l0.078125 0q0.421875 -0.734375 1.28125 -1.21875q0.875 -0.5 1.953125 -0.5q1.28125 0 2.3125 0.65625q1.046875 0.65625 1.640625 1.8125q0.609375 1.15625 0.609375 2.59375q0 1.453125 -0.609375 2.609375q-0.59375 1.140625 -1.640625 1.796875q-1.03125 0.640625 -2.3125 0.640625zm-0.171875 -1.4375q0.8125 0 1.53125 -0.4375q0.734375 -0.453125 1.171875 -1.28125q0.4375 -0.828125 0.4375 -1.890625q0 -1.078125 -0.4375 -1.90625q-0.4375 -0.828125 -1.171875 -1.265625q-0.71875 -0.453125 -1.53125 -0.453125q-0.828125 0 -1.5625 0.453125q-0.71875 0.4375 -1.15625 1.265625q-0.421875 0.8125 -0.421875 1.90625q0 1.078125 0.421875 1.90625q0.4375 0.8125 1.15625 1.265625q0.734375 0.4375 1.5625 0.4375zm7.512314 -10.125q-0.46875 0 -0.8125 -0.328125q-0.328125 -0.34375 -0.328125 -0.8125q0 -0.46875 0.328125 -0.796875q0.34375 -0.328125 0.8125 -0.328125q0.46875 0 0.796875 0.328125q0.34375 0.328125 0.34375 0.796875q0 0.46875 -0.328125 0.8125q-0.328125 0.328125 -0.8125 0.328125zm-0.78125 1.75l1.5625 0l0 9.515625l-1.5625 0l0 -9.515625zm8.247559 13.84375q-1.6875 0 -2.78125 -0.78125q-1.078125 -0.78125 -1.453125 -1.890625l1.4375 -0.609375q0.3125 0.8125 1.046875 1.328125q0.734375 0.515625 1.75 0.515625q1.46875 0 2.28125 -0.859375q0.8125 -0.859375 0.8125 -2.421875l0 -1.0625l-0.078125 0q-0.46875 0.71875 -1.3125 1.1875q-0.84375 0.453125 -1.9375 0.453125q-1.21875 0 -2.25 -0.625q-1.015625 -0.640625 -1.609375 -1.78125q-0.59375 -1.140625 -0.59375 -2.59375q0 -1.4375 0.59375 -2.578125q0.59375 -1.15625 1.609375 -1.78125q1.03125 -0.640625 2.25 -0.640625q1.09375 0 1.9375 0.453125q0.84375 0.453125 1.3125 1.203125l0.078125 0l0 -1.359375l1.515625 0l0 9.140625q0 2.296875 -1.28125 3.5q-1.265625 1.203125 -3.328125 1.203125zm0 -5.578125q0.859375 0 1.546875 -0.421875q0.703125 -0.4375 1.125 -1.234375q0.421875 -0.8125 0.421875 -1.90625q0 -1.125 -0.421875 -1.921875q-0.421875 -0.796875 -1.125 -1.21875q-0.6875 -0.421875 -1.546875 -0.421875q-0.859375 0 -1.578125 0.4375q-0.703125 0.421875 -1.125 1.234375q-0.421875 0.796875 -0.421875 1.890625q0 1.09375 0.421875 1.90625q0.421875 0.8125 1.125 1.234375q0.71875 0.421875 1.578125 0.421875zm6.934662 -5.1875l5.921875 0l0 1.3125l-5.921875 0l0 -1.3125zm8.243027 -6.921875l1.59375 0l0 13.359375l-1.59375 0l0 -13.359375zm8.170837 13.65625q-1.359375 0 -2.4375 -0.640625q-1.078125 -0.65625 -1.6875 -1.796875q-0.609375 -1.15625 -0.609375 -2.59375q0 -1.390625 0.5625 -2.546875q0.578125 -1.15625 1.625 -1.84375q1.046875 -0.6875 2.421875 -0.6875q1.390625 0 2.421875 0.625q1.03125 0.625 1.578125 1.734375q0.546875 1.09375 0.546875 2.515625q0 0.265625 -0.046875 0.484375l-7.53125 0q0.0625 1.078125 0.53125 1.828125q0.46875 0.734375 1.1875 1.109375q0.71875 0.375 1.5 0.375q1.828125 0 2.8125 -1.71875l1.34375 0.65625q-0.609375 1.15625 -1.671875 1.828125q-1.046875 0.671875 -2.546875 0.671875zm2.75 -6.0625q-0.046875 -0.59375 -0.34375 -1.1875q-0.296875 -0.609375 -0.9375 -1.015625q-0.640625 -0.40625 -1.609375 -0.40625q-1.125 0 -1.90625 0.71875q-0.765625 0.71875 -1.015625 1.890625l5.8125 0zm6.5659637 6.0625q-1.046875 0 -1.875 -0.40625q-0.8125 -0.40625 -1.265625 -1.125q-0.4375 -0.71875 -0.4375 -1.640625q0 -1.515625 1.125 -2.359375q1.140625 -0.84375 2.875 -0.84375q0.859375 0 1.59375 0.1875q0.75 0.1875 1.140625 0.421875l0 -0.578125q0 -1.0625 -0.75 -1.703125q-0.75 -0.640625 -1.890625 -0.640625q-0.796875 0 -1.46875 0.34375q-0.671875 0.34375 -1.0625 0.953125l-1.203125 -0.890625q0.5625 -0.859375 1.546875 -1.34375q0.984375 -0.484375 2.171875 -0.484375q1.9375 0 3.046875 1.015625q1.109375 1.015625 1.109375 2.765625l0 6.03125l-1.5 0l0 -1.359375l-0.078125 0q-0.40625 0.6875 -1.234375 1.171875q-0.8125 0.484375 -1.84375 0.484375zm0.140625 -1.390625q0.8125 0 1.5 -0.40625q0.6875 -0.421875 1.09375 -1.109375q0.421875 -0.6875 0.421875 -1.515625q-0.453125 -0.296875 -1.109375 -0.484375q-0.65625 -0.1875 -1.375 -0.1875q-1.3125 0 -1.984375 0.546875q-0.65625 0.53125 -0.65625 1.390625q0 0.78125 0.59375 1.28125q0.609375 0.484375 1.515625 0.484375zm7.8283386 -6.984375l-1.765625 0l0 -1.4375l1.765625 0l0 -1.03125q0 -0.890625 0.40625 -1.5625q0.40625 -0.671875 1.09375 -1.03125q0.703125 -0.359375 1.53125 -0.359375q0.8125 0 1.40625 0.21875l0 1.546875q-0.34375 -0.125 -0.640625 -0.203125q-0.296875 -0.09375 -0.703125 -0.09375q-0.625 0 -1.078125 0.4375q-0.4375 0.4375 -0.4375 1.21875l0 0.859375l2.453125 0l0 1.4375l-2.453125 0l0 8.078125l-1.578125 0l0 -8.078125zm4.7894745 8.078125l0 0zm4.453247 -9.515625l1.703125 0l2.953125 7.65625l0.03125 0l2.984375 -7.65625l1.65625 0l-3.875 9.515625l-1.609375 0l-3.84375 -9.515625zm13.68306 9.8125q-1.046875 0 -1.875 -0.40625q-0.8125 -0.40625 -1.265625 -1.125q-0.4375 -0.71875 -0.4375 -1.640625q0 -1.515625 1.125 -2.359375q1.140625 -0.84375 2.875 -0.84375q0.859375 0 1.59375 0.1875q0.75 0.1875 1.140625 0.421875l0 -0.578125q0 -1.0625 -0.75 -1.703125q-0.75 -0.640625 -1.890625 -0.640625q-0.796875 0 -1.46875 0.34375q-0.671875 0.34375 -1.0625 0.953125l-1.203125 -0.890625q0.5625 -0.859375 1.546875 -1.34375q0.984375 -0.484375 2.171875 -0.484375q1.9375 0 3.046875 1.015625q1.109375 1.015625 1.109375 2.765625l0 6.03125l-1.5 0l0 -1.359375l-0.078125 0q-0.40625 0.6875 -1.234375 1.171875q-0.8125 0.484375 -1.84375 0.484375zm0.140625 -1.390625q0.8125 0 1.5 -0.40625q0.6875 -0.421875 1.09375 -1.109375q0.421875 -0.6875 0.421875 -1.515625q-0.453125 -0.296875 -1.109375 -0.484375q-0.65625 -0.1875 -1.375 -0.1875q-1.3125 0 -1.984375 0.546875q-0.65625 0.53125 -0.65625 1.390625q0 0.78125 0.59375 1.28125q0.609375 0.484375 1.515625 0.484375zm6.7189636 -8.421875l1.515625 0l0 1.53125l0.078125 0q0.28125 -0.78125 1.078125 -1.296875q0.796875 -0.515625 1.671875 -0.515625q0.65625 0 1.125 0.1875l0 1.71875q-0.59375 -0.296875 -1.34375 -0.296875q-0.6875 0 -1.265625 0.390625q-0.578125 0.390625 -0.921875 1.0625q-0.34375 0.65625 -0.34375 1.421875l0 5.3125l-1.59375 0l0 -9.515625zm7.9335938 -1.75q-0.46875 0 -0.8125 -0.328125q-0.328125 -0.34375 -0.328125 -0.8125q0 -0.46875 0.328125 -0.796875q0.34375 -0.328125 0.8125 -0.328125q0.46875 0 0.796875 0.328125q0.34375 0.328125 0.34375 0.796875q0 0.46875 -0.328125 0.8125q-0.328125 0.328125 -0.8125 0.328125zm-0.78125 1.75l1.5625 0l0 9.515625l-1.5625 0l0 -9.515625zm8.294434 9.8125q-1.359375 0 -2.4375 -0.640625q-1.078125 -0.65625 -1.6875 -1.796875q-0.609375 -1.15625 -0.609375 -2.59375q0 -1.390625 0.5625 -2.546875q0.578125 -1.15625 1.625 -1.84375q1.046875 -0.6875 2.421875 -0.6875q1.390625 0 2.421875 0.625q1.03125 0.625 1.578125 1.734375q0.546875 1.09375 0.546875 2.515625q0 0.265625 -0.046875 0.484375l-7.53125 0q0.0625 1.078125 0.53125 1.828125q0.46875 0.734375 1.1875 1.109375q0.71875 0.375 1.5 0.375q1.828125 0 2.8125 -1.71875l1.34375 0.65625q-0.609375 1.15625 -1.671875 1.828125q-1.046875 0.671875 -2.546875 0.671875zm2.75 -6.0625q-0.046875 -0.59375 -0.34375 -1.1875q-0.296875 -0.609375 -0.9375 -1.015625q-0.640625 -0.40625 -1.609375 -0.40625q-1.125 0 -1.90625 0.71875q-0.765625 0.71875 -1.015625 1.890625l5.8125 0zm7.1753387 5.921875q-0.578125 0 -1.078125 -0.1875q-0.484375 -0.1875 -0.828125 -0.515625q-0.359375 -0.34375 -0.546875 -0.8125q-0.1875 -0.46875 -0.1875 -1.140625l0 -5.578125l-1.671875 0l0 -1.4375l1.671875 0l0 -2.6875l1.578125 0l0 2.6875l2.3125 0l0 1.4375l-2.3125 0l0 5.1875q0 0.78125 0.296875 1.15625q0.359375 0.40625 1.03125 0.40625q0.546875 0 1.046875 -0.3125l0 1.546875q-0.28125 0.125 -0.578125 0.1875q-0.28125 0.0625 -0.734375 0.0625zm6.078186 -0.75l-3.921875 -8.921875l1.703125 0l2.984375 7.078125l0.046875 0l2.875 -7.078125l1.71875 0l-5.890625 13.546875l-1.640625 0l2.125 -4.625z" fill-rule="nonzero"/><path fill="#db4437" d="m13.441642 231.95676l0 0c0 -4.4269714 3.6099253 -8.015747 8.062993 -8.015747l0 0c2.1384373 0 4.189291 0.84451294 5.701395 2.3477478c1.512104 1.5032501 2.361597 3.5420837 2.361597 5.6679993l0 0c0 4.4269714 -3.6099243 8.015747 -8.062992 8.015747l0 0c-4.453068 0 -8.062993 -3.5887756 -8.062993 -8.015747z" fill-rule="evenodd"/><path stroke="#424242" stroke-width="1.0" stroke-linejoin="round" stroke-linecap="butt" d="m13.441642 231.95676l0 0c0 -4.4269714 3.6099253 -8.015747 8.062993 -8.015747l0 0c2.1384373 0 4.189291 0.84451294 5.701395 2.3477478c1.512104 1.5032501 2.361597 3.5420837 2.361597 5.6679993l0 0c0 4.4269714 -3.6099243 8.015747 -8.062992 8.015747l0 0c-4.453068 0 -8.062993 -3.5887756 -8.062993 -8.015747z" fill-rule="evenodd"/><path fill="#000000" fill-opacity="0.0" d="m37.75656 208.03018l181.25984 0l0 35.527557l-181.25984 0z" fill-rule="evenodd"/><path fill="#000000" d="m51.25656 235.24706q-1.53125 0 -2.5625 -0.71875q-1.015625 -0.71875 -1.453125 -1.828125l1.421875 -0.640625q0.34375 0.859375 1.046875 1.328125q0.703125 0.46875 1.546875 0.46875q0.890625 0 1.515625 -0.359375q0.640625 -0.375 0.640625 -1.046875q0 -0.59375 -0.5 -0.953125q-0.5 -0.375 -1.578125 -0.625l-1.15625 -0.3125q-1.140625 -0.28125 -1.875 -0.9375q-0.71875 -0.671875 -0.71875 -1.75q0 -0.8125 0.484375 -1.4375q0.5 -0.625 1.3125 -0.953125q0.828125 -0.34375 1.78125 -0.34375q1.25 0 2.21875 0.546875q0.984375 0.53125 1.390625 1.5l-1.375 0.640625q-0.640625 -1.265625 -2.25 -1.265625q-0.796875 0 -1.390625 0.359375q-0.578125 0.359375 -0.578125 0.921875q0 0.53125 0.40625 0.859375q0.421875 0.3125 1.234375 0.515625l1.390625 0.359375q1.390625 0.359375 2.09375 1.0625q0.71875 0.6875 0.71875 1.703125q0 0.875 -0.515625 1.546875q-0.5 0.65625 -1.359375 1.015625q-0.84375 0.34375 -1.890625 0.34375zm5.496277 -9.8125l1.515625 0l0 1.40625l0.078125 0q0.40625 -0.734375 1.21875 -1.21875q0.828125 -0.484375 1.75 -0.484375q1.03125 0 1.8125 0.5q0.78125 0.5 1.109375 1.34375q0.5 -0.84375 1.328125 -1.34375q0.84375 -0.5 1.9375 -0.5q1.640625 0 2.46875 1.0q0.828125 1.0 0.828125 2.71875l0 6.09375l-1.5625 0l0 -5.859375q0 -1.328125 -0.546875 -1.921875q-0.53125 -0.59375 -1.59375 -0.59375q-0.71875 0 -1.296875 0.40625q-0.578125 0.40625 -0.90625 1.109375q-0.3125 0.6875 -0.3125 1.484375l0 5.375l-1.59375 0l0 -5.84375q0 -1.34375 -0.546875 -1.9375q-0.53125 -0.59375 -1.578125 -0.59375q-0.703125 0 -1.28125 0.421875q-0.578125 0.421875 -0.90625 1.125q-0.328125 0.6875 -0.328125 1.5l0 5.328125l-1.59375 0l0 -9.515625zm19.371094 9.8125q-1.046875 0 -1.875 -0.40625q-0.8125 -0.40625 -1.265625 -1.125q-0.4375 -0.71875 -0.4375 -1.640625q0 -1.515625 1.125 -2.359375q1.140625 -0.84375 2.875 -0.84375q0.859375 0 1.59375 0.1875q0.75 0.1875 1.140625 0.421875l0 -0.578125q0 -1.0625 -0.75 -1.703125q-0.75 -0.640625 -1.890625 -0.640625q-0.796875 0 -1.46875 0.34375q-0.671875 0.34375 -1.0625 0.953125l-1.203125 -0.890625q0.5625 -0.859375 1.546875 -1.34375q0.984375 -0.484375 2.171875 -0.484375q1.9375 0 3.046875 1.015625q1.109375 1.015625 1.109375 2.765625l0 6.03125l-1.5 0l0 -1.359375l-0.078125 0q-0.40625 0.6875 -1.234375 1.171875q-0.8125 0.484375 -1.84375 0.484375zm0.140625 -1.390625q0.8125 0 1.5 -0.40625q0.6875 -0.421875 1.09375 -1.109375q0.421875 -0.6875 0.421875 -1.515625q-0.453125 -0.296875 -1.109375 -0.484375q-0.65625 -0.1875 -1.375 -0.1875q-1.3125 0 -1.984375 0.546875q-0.65625 0.53125 -0.65625 1.390625q0 0.78125 0.59375 1.28125q0.609375 0.484375 1.515625 0.484375zm6.7189636 -12.265625l1.59375 0l0 13.359375l-1.59375 0l0 -13.359375zm3.9364624 0l1.59375 0l0 13.359375l-1.59375 0l0 -13.359375zm3.9208374 6.921875l5.921875 0l0 1.3125l-5.921875 0l0 -1.3125zm8.243027 -6.921875l1.59375 0l0 13.359375l-1.59375 0l0 -13.359375zm8.170837 13.65625q-1.359375 0 -2.4375 -0.640625q-1.078125 -0.65625 -1.6875 -1.796875q-0.609375 -1.15625 -0.609375 -2.59375q0 -1.390625 0.5625 -2.546875q0.578125 -1.15625 1.625 -1.84375q1.046875 -0.6875 2.421875 -0.6875q1.390625 0 2.421875 0.625q1.03125 0.625 1.578125 1.734375q0.546875 1.09375 0.546875 2.515625q0 0.265625 -0.046875 0.484375l-7.53125 0q0.0625 1.078125 0.53125 1.828125q0.46875 0.734375 1.1875 1.109375q0.71875 0.375 1.5 0.375q1.828125 0 2.8125 -1.71875l1.34375 0.65625q-0.609375 1.15625 -1.671875 1.828125q-1.046875 0.671875 -2.546875 0.671875zm2.75 -6.0625q-0.046875 -0.59375 -0.34375 -1.1875q-0.296875 -0.609375 -0.9375 -1.015625q-0.640625 -0.40625 -1.609375 -0.40625q-1.125 0 -1.90625 0.71875q-0.765625 0.71875 -1.015625 1.890625l5.8125 0zm6.5659637 6.0625q-1.046875 0 -1.875 -0.40625q-0.8125 -0.40625 -1.265625 -1.125q-0.4375 -0.71875 -0.4375 -1.640625q0 -1.515625 1.125 -2.359375q1.140625 -0.84375 2.875 -0.84375q0.859375 0 1.59375 0.1875q0.75 0.1875 1.140625 0.421875l0 -0.578125q0 -1.0625 -0.75 -1.703125q-0.75 -0.640625 -1.890625 -0.640625q-0.796875 0 -1.46875 0.34375q-0.671875 0.34375 -1.0625 0.953125l-1.203125 -0.890625q0.5625 -0.859375 1.546875 -1.34375q0.984375 -0.484375 2.171875 -0.484375q1.9375 0 3.046875 1.015625q1.109375 1.015625 1.109375 2.765625l0 6.03125l-1.5 0l0 -1.359375l-0.078125 0q-0.40625 0.6875 -1.234375 1.171875q-0.8125 0.484375 -1.84375 0.484375zm0.140625 -1.390625q0.8125 0 1.5 -0.40625q0.6875 -0.421875 1.09375 -1.109375q0.421875 -0.6875 0.421875 -1.515625q-0.453125 -0.296875 -1.109375 -0.484375q-0.65625 -0.1875 -1.375 -0.1875q-1.3125 0 -1.984375 0.546875q-0.65625 0.53125 -0.65625 1.390625q0 0.78125 0.59375 1.28125q0.609375 0.484375 1.515625 0.484375zm7.8283386 -6.984375l-1.765625 0l0 -1.4375l1.765625 0l0 -1.03125q0 -0.890625 0.40625 -1.5625q0.40625 -0.671875 1.09375 -1.03125q0.703125 -0.359375 1.53125 -0.359375q0.8125 0 1.40625 0.21875l0 1.546875q-0.34375 -0.125 -0.640625 -0.203125q-0.296875 -0.09375 -0.703125 -0.09375q-0.625 0 -1.078125 0.4375q-0.4375 0.4375 -0.4375 1.21875l0 0.859375l2.453125 0l0 1.4375l-2.453125 0l0 8.078125l-1.578125 0l0 -8.078125zm4.7894745 8.078125l0 0zm4.453247 -9.515625l1.703125 0l2.953125 7.65625l0.03125 0l2.984375 -7.65625l1.65625 0l-3.875 9.515625l-1.609375 0l-3.84375 -9.515625zm13.68306 9.8125q-1.046875 0 -1.875 -0.40625q-0.8125 -0.40625 -1.265625 -1.125q-0.4375 -0.71875 -0.4375 -1.640625q0 -1.515625 1.125 -2.359375q1.140625 -0.84375 2.875 -0.84375q0.859375 0 1.59375 0.1875q0.75 0.1875 1.140625 0.421875l0 -0.578125q0 -1.0625 -0.75 -1.703125q-0.75 -0.640625 -1.890625 -0.640625q-0.796875 0 -1.46875 0.34375q-0.671875 0.34375 -1.0625 0.953125l-1.203125 -0.890625q0.5625 -0.859375 1.546875 -1.34375q0.984375 -0.484375 2.171875 -0.484375q1.9375 0 3.046875 1.015625q1.109375 1.015625 1.109375 2.765625l0 6.03125l-1.5 0l0 -1.359375l-0.078125 0q-0.40625 0.6875 -1.234375 1.171875q-0.8125 0.484375 -1.84375 0.484375zm0.140625 -1.390625q0.8125 0 1.5 -0.40625q0.6875 -0.421875 1.09375 -1.109375q0.421875 -0.6875 0.421875 -1.515625q-0.453125 -0.296875 -1.109375 -0.484375q-0.65625 -0.1875 -1.375 -0.1875q-1.3125 0 -1.984375 0.546875q-0.65625 0.53125 -0.65625 1.390625q0 0.78125 0.59375 1.28125q0.609375 0.484375 1.515625 0.484375zm6.7189636 -8.421875l1.515625 0l0 1.53125l0.078125 0q0.28125 -0.78125 1.078125 -1.296875q0.796875 -0.515625 1.671875 -0.515625q0.65625 0 1.125 0.1875l0 1.71875q-0.59375 -0.296875 -1.34375 -0.296875q-0.6875 0 -1.265625 0.390625q-0.578125 0.390625 -0.921875 1.0625q-0.34375 0.65625 -0.34375 1.421875l0 5.3125l-1.59375 0l0 -9.515625zm7.9335938 -1.75q-0.46875 0 -0.8125 -0.328125q-0.328125 -0.34375 -0.328125 -0.8125q0 -0.46875 0.328125 -0.796875q0.34375 -0.328125 0.8125 -0.328125q0.46875 0 0.796875 0.328125q0.34375 0.328125 0.34375 0.796875q0 0.46875 -0.328125 0.8125q-0.328125 0.328125 -0.8125 0.328125zm-0.78125 1.75l1.5625 0l0 9.515625l-1.5625 0l0 -9.515625zm8.294434 9.8125q-1.359375 0 -2.4375 -0.640625q-1.078125 -0.65625 -1.6875 -1.796875q-0.609375 -1.15625 -0.609375 -2.59375q0 -1.390625 0.5625 -2.546875q0.578125 -1.15625 1.625 -1.84375q1.046875 -0.6875 2.421875 -0.6875q1.390625 0 2.421875 0.625q1.03125 0.625 1.578125 1.734375q0.546875 1.09375 0.546875 2.515625q0 0.265625 -0.046875 0.484375l-7.53125 0q0.0625 1.078125 0.53125 1.828125q0.46875 0.734375 1.1875 1.109375q0.71875 0.375 1.5 0.375q1.828125 0 2.8125 -1.71875l1.34375 0.65625q-0.609375 1.15625 -1.671875 1.828125q-1.046875 0.671875 -2.546875 0.671875zm2.75 -6.0625q-0.046875 -0.59375 -0.34375 -1.1875q-0.296875 -0.609375 -0.9375 -1.015625q-0.640625 -0.40625 -1.609375 -0.40625q-1.125 0 -1.90625 0.71875q-0.765625 0.71875 -1.015625 1.890625l5.8125 0zm7.1753387 5.921875q-0.578125 0 -1.078125 -0.1875q-0.484375 -0.1875 -0.828125 -0.515625q-0.359375 -0.34375 -0.546875 -0.8125q-0.1875 -0.46875 -0.1875 -1.140625l0 -5.578125l-1.671875 0l0 -1.4375l1.671875 0l0 -2.6875l1.578125 0l0 2.6875l2.3125 0l0 1.4375l-2.3125 0l0 5.1875q0 0.78125 0.296875 1.15625q0.359375 0.40625 1.03125 0.40625q0.546875 0 1.046875 -0.3125l0 1.546875q-0.28125 0.125 -0.578125 0.1875q-0.28125 0.0625 -0.734375 0.0625zm6.078186 -0.75l-3.921875 -8.921875l1.703125 0l2.984375 7.078125l0.046875 0l2.875 -7.078125l1.71875 0l-5.890625 13.546875l-1.640625 0l2.125 -4.625z" fill-rule="nonzero"/><path fill="#4285f4" d="m286.3832 119.98688l16.125977 0l0 16.031494l-16.125977 0z" fill-rule="evenodd"/><path stroke="#000000" stroke-width="1.0" stroke-linejoin="round" stroke-linecap="butt" d="m286.3832 119.98688l16.125977 0l0 16.031494l-16.125977 0z" fill-rule="evenodd"/><path fill="#4285f4" d="m340.81628 103.62467l16.125977 0l0 16.031494l-16.125977 0z" fill-rule="evenodd"/><path stroke="#000000" stroke-width="1.0" stroke-linejoin="round" stroke-linecap="butt" d="m340.81628 103.62467l16.125977 0l0 16.031494l-16.125977 0z" fill-rule="evenodd"/><path fill="#4285f4" d="m392.07086 91.9895l16.125977 0l0 16.031494l-16.125977 0z" fill-rule="evenodd"/><path stroke="#000000" stroke-width="1.0" stroke-linejoin="round" stroke-linecap="butt" d="m392.07086 91.9895l16.125977 0l0 16.031494l-16.125977 0z" fill-rule="evenodd"/><path fill="#4285f4" d="m418.14172 75.95801l16.126007 0l0 16.031494l-16.126007 0z" fill-rule="evenodd"/><path stroke="#000000" stroke-width="1.0" stroke-linejoin="round" stroke-linecap="butt" d="m418.14172 75.95801l16.126007 0l0 16.031494l-16.126007 0z" fill-rule="evenodd"/><path fill="#4285f4" d="m494.16797 29.506561l16.126007 0l0 16.031498l-16.126007 0z" fill-rule="evenodd"/><path stroke="#000000" stroke-width="1.0" stroke-linejoin="round" stroke-linecap="butt" d="m494.16797 29.506561l16.126007 0l0 16.031498l-16.126007 0z" fill-rule="evenodd"/><path fill="#4285f4" d="m559.1312 5.5091863l16.125977 0l0 16.031496l-16.125977 0z" fill-rule="evenodd"/><path stroke="#000000" stroke-width="1.0" stroke-linejoin="round" stroke-linecap="butt" d="m559.1312 5.5091863l16.125977 0l0 16.031496l-16.125977 0z" fill-rule="evenodd"/><path fill="#4285f4" d="m14.383203 189.0105l16.125984 0l0 16.031494l-16.125984 0z" fill-rule="evenodd"/><path stroke="#000000" stroke-width="1.0" stroke-linejoin="round" stroke-linecap="butt" d="m14.383203 189.0105l16.125984 0l0 16.031494l-16.125984 0z" fill-rule="evenodd"/></g></svg>