<svg version="1.1" viewBox="0.0 0.0 464.6692913385827 282.43832020997377" fill="none" stroke="none" stroke-linecap="square" stroke-miterlimit="10" xmlns:xlink="http://www.w3.org/1999/xlink" xmlns="http://www.w3.org/2000/svg"><clipPath id="p.0"><path d="m0 0l464.66928 0l0 282.43832l-464.66928 0l0 -282.43832z" clip-rule="nonzero"/></clipPath><g clip-path="url(#p.0)"><path fill="#000000" fill-opacity="0.0" d="m0 0l464.66928 0l0 282.43832l-464.66928 0z" fill-rule="evenodd"/><path fill="#000000" fill-opacity="0.0" d="m74.72966 108.92166l0 0c0 -10.993736 8.912178 -19.905914 19.905907 -19.905914l102.48739 0c5.2793884 0 10.342529 2.0972214 14.075607 5.830307c3.733078 3.7330856 5.830307 8.7962265 5.830307 14.075607l0 79.62125c0 10.993729 -8.91217 19.905914 -19.905914 19.905914l-102.48739 0l0 0c-10.993729 0 -19.905907 -8.912186 -19.905907 -19.905914z" fill-rule="evenodd"/><path stroke="#1155cc" stroke-width="3.0" stroke-linejoin="round" stroke-linecap="butt" d="m74.72966 108.92166l0 0c0 -10.993736 8.912178 -19.905914 19.905907 -19.905914l102.48739 0c5.2793884 0 10.342529 2.0972214 14.075607 5.830307c3.733078 3.7330856 5.830307 8.7962265 5.830307 14.075607l0 79.62125c0 10.993729 -8.91217 19.905914 -19.905914 19.905914l-102.48739 0l0 0c-10.993729 0 -19.905907 -8.912186 -19.905907 -19.905914z" fill-rule="evenodd"/><path fill="#000000" fill-opacity="0.0" d="m215.76378 36.294407l0 0c0 -12.283869 9.958038 -22.241913 22.241913 -22.241913l141.02797 0c5.898926 0 11.556244 2.343339 15.727417 6.5145063c4.171173 4.1711674 6.5145264 9.8284855 6.5145264 15.727407l0 88.965c0 12.2838745 -9.958069 22.241913 -22.241943 22.241913l-141.02797 0c-12.2838745 0 -22.241913 -9.958038 -22.241913 -22.241913z" fill-rule="evenodd"/><path stroke="#e69138" stroke-width="3.0" stroke-linejoin="round" stroke-linecap="butt" d="m215.76378 36.294407l0 0c0 -12.283869 9.958038 -22.241913 22.241913 -22.241913l141.02797 0c5.898926 0 11.556244 2.343339 15.727417 6.5145063c4.171173 4.1711674 6.5145264 9.8284855 6.5145264 15.727407l0 88.965c0 12.2838745 -9.958069 22.241913 -22.241943 22.241913l-141.02797 0c-12.2838745 0 -22.241913 -9.958038 -22.241913 -22.241913z" fill-rule="evenodd"/><path fill="#6aa84f" d="m313.6836 63.64033l0 0c0 -4.4269753 3.6099243 -8.015747 8.062988 -8.015747l0 0c2.1384583 0 4.1893005 0.84451294 5.701416 2.3477592c1.512085 1.5032425 2.3616028 3.54208 2.3616028 5.667988l0 0c0 4.4269753 -3.6099243 8.015751 -8.063019 8.015751l0 0c-4.453064 0 -8.062988 -3.5887756 -8.062988 -8.015751z" fill-rule="evenodd"/><path stroke="#424242" stroke-width="1.0" stroke-linejoin="round" stroke-linecap="butt" d="m313.6836 63.64033l0 0c0 -4.4269753 3.6099243 -8.015747 8.062988 -8.015747l0 0c2.1384583 0 4.1893005 0.84451294 5.701416 2.3477592c1.512085 1.5032425 2.3616028 3.54208 2.3616028 5.667988l0 0c0 4.4269753 -3.6099243 8.015751 -8.063019 8.015751l0 0c-4.453064 0 -8.062988 -3.5887756 -8.062988 -8.015751z" fill-rule="evenodd"/><path fill="#6aa84f" d="m93.44164 149.24231l0 0c0 -4.4269867 3.6099243 -8.015747 8.062988 -8.015747l0 0c2.138443 0 4.189293 0.84451294 5.7014008 2.3477478c1.5121002 1.5032501 2.3615952 3.5420837 2.3615952 5.6679993l0 0c0 4.4269714 -3.6099243 8.015747 -8.062996 8.015747l0 0c-4.453064 0 -8.062988 -3.5887756 -8.062988 -8.015747z" fill-rule="evenodd"/><path stroke="#424242" stroke-width="1.0" stroke-linejoin="round" stroke-linecap="butt" d="m93.44164 149.24231l0 0c0 -4.4269867 3.6099243 -8.015747 8.062988 -8.015747l0 0c2.138443 0 4.189293 0.84451294 5.7014008 2.3477478c1.5121002 1.5032501 2.3615952 3.5420837 2.3615952 5.6679993l0 0c0 4.4269714 -3.6099243 8.015747 -8.062996 8.015747l0 0c-4.453064 0 -8.062988 -3.5887756 -8.062988 -8.015747z" fill-rule="evenodd"/><path fill="#000000" fill-opacity="0.0" d="m52.047245 241.01128l402.17322 0" fill-rule="evenodd"/><path stroke="#424242" stroke-width="8.0" stroke-linejoin="round" stroke-linecap="butt" d="m52.047245 241.01128l402.17322 0" fill-rule="evenodd"/><path fill="#000000" fill-opacity="0.0" d="m56.503937 241.01128l0 -224.06299" fill-rule="evenodd"/><path stroke="#424242" stroke-width="8.0" stroke-linejoin="round" stroke-linecap="butt" d="m56.503937 241.01128l0 -224.06299" fill-rule="evenodd"/><path fill="#000000" fill-opacity="0.0" d="m223.1811 234.96404l51.11812 0l0 35.527542l-51.11812 0z" fill-rule="evenodd"/><path fill="#000000" d="m235.75923 257.00903l-2.40625 -4.640625l1.796875 0l1.75 3.515625l0.015625 0l2.9375 -3.515625l1.921875 0l-4.140625 4.734375l2.53125 4.78125l-1.796875 0l-1.828125 -3.65625l-0.015625 0l-3.03125 3.65625l-1.90625 0l4.171875 -4.875z" fill-rule="nonzero"/><path fill="#000000" d="m244.51367 261.8684l-1.578125 1.0625l-0.5 -0.8125l2.703125 -1.734375l0.703125 0l-1.515625 8.5l-1.03125 0l1.21875 -7.015625z" fill-rule="nonzero"/><path fill="#000000" fill-opacity="0.0" d="m17.779528 111.98765l38.29921 0l0 35.527565l-38.29921 0z" fill-rule="evenodd"/><path fill="#000000" d="m30.357653 134.03265l-2.40625 -4.640625l1.796875 0l1.75 3.515625l0.015625 0l2.937498 -3.515625l1.921875 0l-4.140625 4.734375l2.53125 4.78125l-1.796875 0l-1.8281231 -3.65625l-0.015625 0l-3.03125 3.65625l-1.90625 0l4.171875 -4.875z" fill-rule="nonzero"/><path fill="#000000" d="m36.04959 144.84515q0.4375 -0.375 1.578125 -1.359375q1.140625 -1.0 2.09375 -1.828125q0.5 -0.453125 0.78125 -0.734375q0.28125 -0.296875 0.453125 -0.640625q0.171875 -0.34375 0.171875 -0.75q0 -0.609375 -0.375 -0.96875q-0.375 -0.359375 -1.046875 -0.359375q-0.65625 0 -1.09375 0.40625q-0.4375 0.390625 -0.609375 0.875l-0.953125 -0.421875q0.296875 -0.75 0.984375 -1.296875q0.703125 -0.5625 1.8125 -0.5625q0.671875 0 1.21875 0.28125q0.546875 0.28125 0.84375 0.78125q0.3125 0.484375 0.3125 1.09375q0 0.609375 -0.25 1.109375q-0.234375 0.5 -0.609375 0.921875q-0.375 0.40625 -0.984375 0.953125l-2.96875 2.5625l3.984375 0l-0.15625 1.0l-5.375 0l0.1875 -1.0625z" fill-rule="nonzero"/><path fill="#000000" fill-opacity="0.0" d="m87.53018 110.23893l45.5748 0l0 29.41732l-45.5748 0z" fill-rule="evenodd"/><path fill="#000000" d="m100.28018 132.33081q0 -0.9375 0.34375 -1.546875q0.359375 -0.625 1.28125 -1.484375q0.75 -0.671875 1.0625 -1.140625q0.328125 -0.48438263 0.328125 -1.1562576q0 -0.890625 -0.578125 -1.4375q-0.578125 -0.546875 -1.59375 -0.546875q-0.9375 0 -1.484375 0.53125q-0.546875 0.53125 -0.828125 1.3125l-1.484375 -0.609375q0.421875 -1.09375 1.34375 -1.921875q0.9375 -0.828125 2.4375 -0.828125q1.109375 0 1.96875 0.453125q0.875 0.453125 1.34375 1.265625q0.484375 0.796875 0.484375 1.78125q0 1.0312576 -0.515625 1.7500076q-0.515625 0.71875 -1.3125 1.453125q-0.609375 0.546875 -0.890625 1.0625q-0.28125 0.5 -0.28125 1.171875l0 0.78125l-1.625 0l0 -0.890625zm0.796875 4.9375q-0.484375 0 -0.828125 -0.34375q-0.34375 -0.34375 -0.34375 -0.84375q0 -0.484375 0.34375 -0.828125q0.34375 -0.34375 0.828125 -0.34375q0.515625 0 0.859375 0.34375q0.34375 0.34375 0.34375 0.828125q0 0.5 -0.34375 0.84375q-0.34375 0.34375 -0.859375 0.34375z" fill-rule="nonzero"/><path fill="#000000" fill-opacity="0.0" d="m306.07135 26.427166l45.5748 0l0 29.417324l-45.5748 0z" fill-rule="evenodd"/><path fill="#000000" d="m318.82135 48.51904q0 -0.9375 0.34375 -1.546875q0.359375 -0.625 1.28125 -1.484375q0.75 -0.671875 1.0625 -1.140625q0.328125 -0.484375 0.328125 -1.15625q0 -0.890625 -0.578125 -1.4375q-0.578125 -0.546875 -1.59375 -0.546875q-0.9375 0 -1.484375 0.53125q-0.546875 0.53125 -0.828125 1.3125l-1.484375 -0.609375q0.421875 -1.09375 1.34375 -1.921875q0.9375 -0.828125 2.4375 -0.828125q1.109375 0 1.96875 0.453125q0.875 0.453125 1.34375 1.265625q0.484375 0.796875 0.484375 1.78125q0 1.03125 -0.515625 1.75q-0.515625 0.71875 -1.3125 1.453125q-0.609375 0.546875 -0.890625 1.0625q-0.28125 0.5 -0.28125 1.171875l0 0.78125l-1.625 0l0 -0.890625zm0.796875 4.9375q-0.484375 0 -0.828125 -0.34375q-0.34375 -0.34375 -0.34375 -0.84375q0 -0.484375 0.34375 -0.828125q0.34375 -0.34375 0.828125 -0.34375q0.515625 0 0.859375 0.34375q0.34375 0.34375 0.34375 0.828125q0 0.5 -0.34375 0.84375q-0.34375 0.34375 -0.859375 0.34375z" fill-rule="nonzero"/></g></svg>