<svg version="1.1" viewBox="0.0 0.0 459.01312335958005 276.7821522309711" fill="none" stroke="none" stroke-linecap="square" stroke-miterlimit="10" xmlns:xlink="http://www.w3.org/1999/xlink" xmlns="http://www.w3.org/2000/svg"><clipPath id="p.0"><path d="m0 0l459.01312 0l0 276.78217l-459.01312 0l0 -276.78217z" clip-rule="nonzero"/></clipPath><g clip-path="url(#p.0)"><path fill="#000000" fill-opacity="0.0" d="m0 0l459.01312 0l0 276.78217l-459.01312 0z" fill-rule="evenodd"/><path fill="#6aa84f" d="m184.07214 92.09209l0 0c0 -4.426979 3.6099243 -8.015747 8.062988 -8.015747l0 0c2.138443 0 4.1892853 0.84451294 5.7014008 2.3477554c1.5121002 1.5032425 2.3615875 3.5420837 2.3615875 5.6679916l0 0c0 4.4269714 -3.6099243 8.015747 -8.062988 8.015747l0 0c-4.453064 0 -8.062988 -3.5887756 -8.062988 -8.015747z" fill-rule="evenodd"/><path stroke="#424242" stroke-width="1.0" stroke-linejoin="round" stroke-linecap="butt" d="m184.07214 92.09209l0 0c0 -4.426979 3.6099243 -8.015747 8.062988 -8.015747l0 0c2.138443 0 4.1892853 0.84451294 5.7014008 2.3477554c1.5121002 1.5032425 2.3615875 3.5420837 2.3615875 5.6679916l0 0c0 4.4269714 -3.6099243 8.015747 -8.062988 8.015747l0 0c-4.453064 0 -8.062988 -3.5887756 -8.062988 -8.015747z" fill-rule="evenodd"/><path fill="#6aa84f" d="m241.68361 127.640335l0 0c0 -4.426979 3.6099243 -8.015747 8.062988 -8.015747l0 0c2.138443 0 4.1892853 0.84451294 5.7014008 2.3477554c1.512085 1.5032425 2.3616028 3.5420837 2.3616028 5.6679916l0 0c0 4.4269714 -3.6099396 8.015747 -8.063004 8.015747l0 0c-4.453064 0 -8.062988 -3.5887756 -8.062988 -8.015747z" fill-rule="evenodd"/><path stroke="#424242" stroke-width="1.0" stroke-linejoin="round" stroke-linecap="butt" d="m241.68361 127.640335l0 0c0 -4.426979 3.6099243 -8.015747 8.062988 -8.015747l0 0c2.138443 0 4.1892853 0.84451294 5.7014008 2.3477554c1.512085 1.5032425 2.3616028 3.5420837 2.3616028 5.6679916l0 0c0 4.4269714 -3.6099396 8.015747 -8.063004 8.015747l0 0c-4.453064 0 -8.062988 -3.5887756 -8.062988 -8.015747z" fill-rule="evenodd"/><path fill="#6aa84f" d="m302.04315 103.97112l0 0c0 -4.4269714 3.6099243 -8.015747 8.062988 -8.015747l0 0c2.1384277 0 4.1893005 0.84451294 5.7013855 2.3477554c1.5121155 1.5032501 2.3616028 3.5420837 2.3616028 5.6679916l0 0c0 4.426979 -3.6099243 8.015747 -8.062988 8.015747l0 0c-4.453064 0 -8.062988 -3.588768 -8.062988 -8.015747z" fill-rule="evenodd"/><path stroke="#424242" stroke-width="1.0" stroke-linejoin="round" stroke-linecap="butt" d="m302.04315 103.97112l0 0c0 -4.4269714 3.6099243 -8.015747 8.062988 -8.015747l0 0c2.1384277 0 4.1893005 0.84451294 5.7013855 2.3477554c1.5121155 1.5032501 2.3616028 3.5420837 2.3616028 5.6679916l0 0c0 4.426979 -3.6099243 8.015747 -8.062988 8.015747l0 0c-4.453064 0 -8.062988 -3.588768 -8.062988 -8.015747z" fill-rule="evenodd"/><path fill="#6aa84f" d="m132.81693 103.64103l0 0c0 -4.4269714 3.6099243 -8.015747 8.063004 -8.015747l0 0c2.1384277 0 4.1892853 0.84451294 5.7013855 2.3477554c1.5121155 1.5032501 2.3616028 3.5420837 2.3616028 5.6679916l0 0c0 4.426979 -3.6099243 8.015747 -8.062988 8.015747l0 0c-4.453079 0 -8.063004 -3.588768 -8.063004 -8.015747z" fill-rule="evenodd"/><path stroke="#424242" stroke-width="1.0" stroke-linejoin="round" stroke-linecap="butt" d="m132.81693 103.64103l0 0c0 -4.4269714 3.6099243 -8.015747 8.063004 -8.015747l0 0c2.1384277 0 4.1892853 0.84451294 5.7013855 2.3477554c1.5121155 1.5032501 2.3616028 3.5420837 2.3616028 5.6679916l0 0c0 4.426979 -3.6099243 8.015747 -8.062988 8.015747l0 0c-4.453079 0 -8.063004 -3.588768 -8.063004 -8.015747z" fill-rule="evenodd"/><path fill="#6aa84f" d="m126.24914 159.9415l0 0c0 -4.4269867 3.609932 -8.015747 8.062996 -8.015747l0 0c2.138443 0 4.1892853 0.84451294 5.7014008 2.3477478c1.5121002 1.5032501 2.3615875 3.5420837 2.3615875 5.6679993l0 0c0 4.4269714 -3.6099243 8.015747 -8.062988 8.015747l0 0c-4.453064 0 -8.062996 -3.5887756 -8.062996 -8.015747z" fill-rule="evenodd"/><path stroke="#424242" stroke-width="1.0" stroke-linejoin="round" stroke-linecap="butt" d="m126.24914 159.9415l0 0c0 -4.4269867 3.609932 -8.015747 8.062996 -8.015747l0 0c2.138443 0 4.1892853 0.84451294 5.7014008 2.3477478c1.5121002 1.5032501 2.3615875 3.5420837 2.3615875 5.6679993l0 0c0 4.4269714 -3.6099243 8.015747 -8.062988 8.015747l0 0c-4.453064 0 -8.062996 -3.5887756 -8.062996 -8.015747z" fill-rule="evenodd"/><path fill="#6aa84f" d="m336.10846 43.93927l0 0c0 -4.4269753 3.6099243 -8.015751 8.063019 -8.015751l0 0c2.1384277 0 4.18927 0.84451675 5.7013855 2.3477592c1.5121155 1.5032463 2.3616028 3.54208 2.3616028 5.6679916l0 0c0 4.4269753 -3.6099243 8.015747 -8.062988 8.015747l0 0c-4.4530945 0 -8.063019 -3.5887718 -8.063019 -8.015747z" fill-rule="evenodd"/><path stroke="#424242" stroke-width="1.0" stroke-linejoin="round" stroke-linecap="butt" d="m336.10846 43.93927l0 0c0 -4.4269753 3.6099243 -8.015751 8.063019 -8.015751l0 0c2.1384277 0 4.18927 0.84451675 5.7013855 2.3477592c1.5121155 1.5032463 2.3616028 3.54208 2.3616028 5.6679916l0 0c0 4.4269753 -3.6099243 8.015747 -8.062988 8.015747l0 0c-4.4530945 0 -8.063019 -3.5887718 -8.063019 -8.015747z" fill-rule="evenodd"/><path fill="#6aa84f" d="m162.14058 123.97303l0 0c0 -4.4269714 3.6099243 -8.015747 8.063004 -8.015747l0 0c2.1384277 0 4.1892853 0.84451294 5.7013855 2.3477554c1.5121155 1.5032501 2.3616028 3.5420837 2.3616028 5.6679916l0 0c0 4.426979 -3.6099243 8.015755 -8.062988 8.015755l0 0c-4.453079 0 -8.063004 -3.5887756 -8.063004 -8.015755z" fill-rule="evenodd"/><path stroke="#424242" stroke-width="1.0" stroke-linejoin="round" stroke-linecap="butt" d="m162.14058 123.97303l0 0c0 -4.4269714 3.6099243 -8.015747 8.063004 -8.015747l0 0c2.1384277 0 4.1892853 0.84451294 5.7013855 2.3477554c1.5121155 1.5032501 2.3616028 3.5420837 2.3616028 5.6679916l0 0c0 4.426979 -3.6099243 8.015755 -8.062988 8.015755l0 0c-4.453079 0 -8.063004 -3.5887756 -8.063004 -8.015755z" fill-rule="evenodd"/><path fill="#6aa84f" d="m158.50906 149.949l0 0c0 -4.4269867 3.6099243 -8.015762 8.062988 -8.015762l0 0c2.138443 0 4.1893005 0.8445282 5.7014008 2.347763c1.5121002 1.5032501 2.3615875 3.5420837 2.3615875 5.6679993l0 0c0 4.4269714 -3.6099243 8.015747 -8.062988 8.015747l0 0c-4.453064 0 -8.062988 -3.5887756 -8.062988 -8.015747z" fill-rule="evenodd"/><path stroke="#424242" stroke-width="1.0" stroke-linejoin="round" stroke-linecap="butt" d="m158.50906 149.949l0 0c0 -4.4269867 3.6099243 -8.015762 8.062988 -8.015762l0 0c2.138443 0 4.1893005 0.8445282 5.7014008 2.347763c1.5121002 1.5032501 2.3615875 3.5420837 2.3615875 5.6679993l0 0c0 4.4269714 -3.6099243 8.015747 -8.062988 8.015747l0 0c-4.453064 0 -8.062988 -3.5887756 -8.062988 -8.015747z" fill-rule="evenodd"/><path fill="#6aa84f" d="m98.51079 157.06097l0 0c0 -4.4269714 3.6099243 -8.015747 8.062988 -8.015747l0 0c2.138443 0 4.189293 0.84451294 5.7014008 2.347763c1.5121002 1.5032349 2.3615952 3.5420837 2.3615952 5.667984l0 0c0 4.4269714 -3.6099243 8.015747 -8.062996 8.015747l0 0c-4.453064 0 -8.062988 -3.5887756 -8.062988 -8.015747z" fill-rule="evenodd"/><path stroke="#424242" stroke-width="1.0" stroke-linejoin="round" stroke-linecap="butt" d="m98.51079 157.06097l0 0c0 -4.4269714 3.6099243 -8.015747 8.062988 -8.015747l0 0c2.138443 0 4.189293 0.84451294 5.7014008 2.347763c1.5121002 1.5032349 2.3615952 3.5420837 2.3615952 5.667984l0 0c0 4.4269714 -3.6099243 8.015747 -8.062996 8.015747l0 0c-4.453064 0 -8.062988 -3.5887756 -8.062988 -8.015747z" fill-rule="evenodd"/><path fill="#6aa84f" d="m226.26842 101.060425l0 0c0 -4.426979 3.6099243 -8.015747 8.062988 -8.015747l0 0c2.138443 0 4.1892853 0.84451294 5.7014008 2.3477554c1.5121002 1.5032425 2.3615875 3.5420837 2.3615875 5.6679916l0 0c0 4.4269714 -3.6099243 8.015747 -8.062988 8.015747l0 0c-4.453064 0 -8.062988 -3.5887756 -8.062988 -8.015747z" fill-rule="evenodd"/><path stroke="#424242" stroke-width="1.0" stroke-linejoin="round" stroke-linecap="butt" d="m226.26842 101.060425l0 0c0 -4.426979 3.6099243 -8.015747 8.062988 -8.015747l0 0c2.138443 0 4.1892853 0.84451294 5.7014008 2.3477554c1.5121002 1.5032425 2.3615875 3.5420837 2.3615875 5.6679916l0 0c0 4.4269714 -3.6099243 8.015747 -8.062988 8.015747l0 0c-4.453064 0 -8.062988 -3.5887756 -8.062988 -8.015747z" fill-rule="evenodd"/><path fill="#6aa84f" d="m274.1745 120.0118l0 0c0 -4.4269714 3.6099243 -8.015747 8.062988 -8.015747l0 0c2.1384277 0 4.1893005 0.84451294 5.7013855 2.347763c1.5121155 1.5032425 2.3616028 3.542076 2.3616028 5.667984l0 0c0 4.426979 -3.6099243 8.015755 -8.062988 8.015755l0 0c-4.453064 0 -8.062988 -3.5887756 -8.062988 -8.015755z" fill-rule="evenodd"/><path stroke="#424242" stroke-width="1.0" stroke-linejoin="round" stroke-linecap="butt" d="m274.1745 120.0118l0 0c0 -4.4269714 3.6099243 -8.015747 8.062988 -8.015747l0 0c2.1384277 0 4.1893005 0.84451294 5.7013855 2.347763c1.5121155 1.5032425 2.3616028 3.542076 2.3616028 5.667984l0 0c0 4.426979 -3.6099243 8.015755 -8.062988 8.015755l0 0c-4.453064 0 -8.062988 -3.5887756 -8.062988 -8.015755z" fill-rule="evenodd"/><path fill="#6aa84f" d="m286.16885 29.523514l0 0c0 -4.4269753 3.6099243 -8.015747 8.062988 -8.015747l0 0c2.1384277 0 4.18927 0.84451294 5.7013855 2.3477573c1.5121155 1.5032444 2.3616028 3.5420818 2.3616028 5.6679897l0 0c0 4.4269753 -3.6099243 8.015747 -8.062988 8.015747l0 0c-4.453064 0 -8.062988 -3.5887718 -8.062988 -8.015747z" fill-rule="evenodd"/><path stroke="#424242" stroke-width="1.0" stroke-linejoin="round" stroke-linecap="butt" d="m286.16885 29.523514l0 0c0 -4.4269753 3.6099243 -8.015747 8.062988 -8.015747l0 0c2.1384277 0 4.18927 0.84451294 5.7013855 2.3477573c1.5121155 1.5032444 2.3616028 3.5420818 2.3616028 5.6679897l0 0c0 4.4269753 -3.6099243 8.015747 -8.062988 8.015747l0 0c-4.453064 0 -8.062988 -3.5887718 -8.062988 -8.015747z" fill-rule="evenodd"/><path fill="#6aa84f" d="m311.13184 29.52416l0 0c0 -4.4269753 3.6099243 -8.015749 8.063019 -8.015749l0 0c2.1384277 0 4.18927 0.84451485 5.7013855 2.3477592c1.5121155 1.5032444 2.3616028 3.5420818 2.3616028 5.6679897l0 0c0 4.426977 -3.6099243 8.015749 -8.062988 8.015749l0 0c-4.4530945 0 -8.063019 -3.5887718 -8.063019 -8.015749z" fill-rule="evenodd"/><path stroke="#424242" stroke-width="1.0" stroke-linejoin="round" stroke-linecap="butt" d="m311.13184 29.52416l0 0c0 -4.4269753 3.6099243 -8.015749 8.063019 -8.015749l0 0c2.1384277 0 4.18927 0.84451485 5.7013855 2.3477592c1.5121155 1.5032444 2.3616028 3.5420818 2.3616028 5.6679897l0 0c0 4.426977 -3.6099243 8.015749 -8.062988 8.015749l0 0c-4.4530945 0 -8.063019 -3.5887718 -8.063019 -8.015749z" fill-rule="evenodd"/><path fill="#6aa84f" d="m69.44164 181.24231l0 0c0 -4.4269867 3.6099243 -8.015747 8.062988 -8.015747l0 0c2.138443 0 4.189293 0.84451294 5.7014008 2.3477478c1.5121002 1.5032501 2.3615952 3.5420837 2.3615952 5.6679993l0 0c0 4.4269714 -3.6099243 8.015747 -8.062996 8.015747l0 0c-4.453064 0 -8.062988 -3.5887756 -8.062988 -8.015747z" fill-rule="evenodd"/><path stroke="#424242" stroke-width="1.0" stroke-linejoin="round" stroke-linecap="butt" d="m69.44164 181.24231l0 0c0 -4.4269867 3.6099243 -8.015747 8.062988 -8.015747l0 0c2.138443 0 4.189293 0.84451294 5.7014008 2.3477478c1.5121002 1.5032501 2.3615952 3.5420837 2.3615952 5.6679993l0 0c0 4.4269714 -3.6099243 8.015747 -8.062996 8.015747l0 0c-4.453064 0 -8.062988 -3.5887756 -8.062988 -8.015747z" fill-rule="evenodd"/><path fill="#000000" fill-opacity="0.0" d="m44.047245 233.01128l402.17322 0" fill-rule="evenodd"/><path stroke="#424242" stroke-width="8.0" stroke-linejoin="round" stroke-linecap="butt" d="m44.047245 233.01128l402.17322 0" fill-rule="evenodd"/><path fill="#000000" fill-opacity="0.0" d="m48.503937 233.01128l0 -224.06299" fill-rule="evenodd"/><path stroke="#424242" stroke-width="8.0" stroke-linejoin="round" stroke-linecap="butt" d="m48.503937 233.01128l0 -224.06299" fill-rule="evenodd"/><path fill="#000000" fill-opacity="0.0" d="m215.1811 226.96404l51.11812 0l0 35.527542l-51.11812 0z" fill-rule="evenodd"/><path fill="#000000" d="m227.75923 249.00903l-2.40625 -4.640625l1.796875 0l1.75 3.515625l0.015625 0l2.9375 -3.515625l1.921875 0l-4.140625 4.734375l2.53125 4.78125l-1.796875 0l-1.828125 -3.65625l-0.015625 0l-3.03125 3.65625l-1.90625 0l4.171875 -4.875z" fill-rule="nonzero"/><path fill="#000000" d="m236.51367 253.86841l-1.578125 1.0625l-0.5 -0.8125l2.703125 -1.734375l0.703125 0l-1.515625 8.5l-1.03125 0l1.21875 -7.015625z" fill-rule="nonzero"/><path fill="#000000" fill-opacity="0.0" d="m9.779528 103.98765l38.29921 0l0 35.527565l-38.29921 0z" fill-rule="evenodd"/><path fill="#000000" d="m22.357653 126.032646l-2.40625 -4.640625l1.796875 0l1.75 3.515625l0.015625 0l2.9375 -3.515625l1.921875 0l-4.140625 4.734375l2.53125 4.7812576l-1.796875 0l-1.828125 -3.6562576l-0.015625 0l-3.03125 3.6562576l-1.90625 0l4.171875 -4.8750076z" fill-rule="nonzero"/><path fill="#000000" d="m28.049593 136.84515q0.4375 -0.375 1.578125 -1.359375q1.140625 -1.0 2.09375 -1.828125q0.4999981 -0.453125 0.7812481 -0.734375q0.28125 -0.296875 0.453125 -0.640625q0.171875 -0.34375 0.171875 -0.75q0 -0.609375 -0.375 -0.96875q-0.375 -0.359375 -1.0468731 -0.359375q-0.65625 0 -1.09375 0.40625q-0.4375 0.390625 -0.609375 0.875l-0.953125 -0.421875q0.296875 -0.75 0.984375 -1.296875q0.703125 -0.5625 1.8125 -0.5625q0.6718731 0 1.2187481 0.28125q0.546875 0.28125 0.84375 0.78125q0.3125 0.484375 0.3125 1.09375q0 0.609375 -0.25 1.109375q-0.234375 0.5 -0.609375 0.921875q-0.375 0.40625 -0.984375 0.953125l-2.968748 2.5625l3.984373 0l-0.15625 1.0l-5.374998 0l0.1875 -1.0625z" fill-rule="nonzero"/><path fill="#6aa84f" d="m190.50906 141.949l0 0c0 -4.4269867 3.6099243 -8.015762 8.062988 -8.015762l0 0c2.138443 0 4.1893005 0.8445282 5.7014008 2.347763c1.5121002 1.5032501 2.3615875 3.5420837 2.3615875 5.6679993l0 0c0 4.4269714 -3.6099243 8.015747 -8.062988 8.015747l0 0c-4.453064 0 -8.062988 -3.5887756 -8.062988 -8.015747z" fill-rule="evenodd"/><path stroke="#424242" stroke-width="1.0" stroke-linejoin="round" stroke-linecap="butt" d="m190.50906 141.949l0 0c0 -4.4269867 3.6099243 -8.015762 8.062988 -8.015762l0 0c2.138443 0 4.1893005 0.8445282 5.7014008 2.347763c1.5121002 1.5032501 2.3615875 3.5420837 2.3615875 5.6679993l0 0c0 4.4269714 -3.6099243 8.015747 -8.062988 8.015747l0 0c-4.453064 0 -8.062988 -3.5887756 -8.062988 -8.015747z" fill-rule="evenodd"/><path fill="#6aa84f" d="m78.38439 117.025116l0 0c0 -4.426979 3.6099243 -8.015747 8.062988 -8.015747l0 0c2.138443 0 4.189293 0.84451294 5.7014008 2.3477554c1.5121002 1.5032425 2.3615952 3.5420837 2.3615952 5.6679916l0 0c0 4.4269714 -3.6099243 8.015747 -8.062996 8.015747l0 0c-4.453064 0 -8.062988 -3.5887756 -8.062988 -8.015747z" fill-rule="evenodd"/><path stroke="#424242" stroke-width="1.0" stroke-linejoin="round" stroke-linecap="butt" d="m78.38439 117.025116l0 0c0 -4.426979 3.6099243 -8.015747 8.062988 -8.015747l0 0c2.138443 0 4.189293 0.84451294 5.7014008 2.3477554c1.5121002 1.5032425 2.3615952 3.5420837 2.3615952 5.6679916l0 0c0 4.4269714 -3.6099243 8.015747 -8.062996 8.015747l0 0c-4.453064 0 -8.062988 -3.5887756 -8.062988 -8.015747z" fill-rule="evenodd"/><path fill="#6aa84f" d="m311.13184 61.52416l0 0c0 -4.4269753 3.6099243 -8.015747 8.063019 -8.015747l0 0c2.1384277 0 4.18927 0.84451294 5.7013855 2.3477592c1.5121155 1.5032425 2.3616028 3.54208 2.3616028 5.667988l0 0c0 4.4269753 -3.6099243 8.015751 -8.062988 8.015751l0 0c-4.4530945 0 -8.063019 -3.5887756 -8.063019 -8.015751z" fill-rule="evenodd"/><path stroke="#424242" stroke-width="1.0" stroke-linejoin="round" stroke-linecap="butt" d="m311.13184 61.52416l0 0c0 -4.4269753 3.6099243 -8.015747 8.063019 -8.015747l0 0c2.1384277 0 4.18927 0.84451294 5.7013855 2.3477592c1.5121155 1.5032425 2.3616028 3.54208 2.3616028 5.667988l0 0c0 4.4269753 -3.6099243 8.015751 -8.062988 8.015751l0 0c-4.4530945 0 -8.063019 -3.5887756 -8.063019 -8.015751z" fill-rule="evenodd"/><path fill="#6aa84f" d="m242.26842 85.060425l0 0c0 -4.426979 3.6099243 -8.015747 8.062988 -8.015747l0 0c2.138443 0 4.1892853 0.84451294 5.7014008 2.3477554c1.512085 1.5032425 2.3616028 3.5420837 2.3616028 5.6679916l0 0c0 4.4269714 -3.6099396 8.015747 -8.063004 8.015747l0 0c-4.453064 0 -8.062988 -3.5887756 -8.062988 -8.015747z" fill-rule="evenodd"/><path stroke="#424242" stroke-width="1.0" stroke-linejoin="round" stroke-linecap="butt" d="m242.26842 85.060425l0 0c0 -4.426979 3.6099243 -8.015747 8.062988 -8.015747l0 0c2.138443 0 4.1892853 0.84451294 5.7014008 2.3477554c1.512085 1.5032425 2.3616028 3.5420837 2.3616028 5.6679916l0 0c0 4.4269714 -3.6099396 8.015747 -8.063004 8.015747l0 0c-4.453064 0 -8.062988 -3.5887756 -8.062988 -8.015747z" fill-rule="evenodd"/><path fill="#6aa84f" d="m258.2684 93.060425l0 0c0 -4.426979 3.6099243 -8.015747 8.063019 -8.015747l0 0c2.1384277 0 4.18927 0.84451294 5.7013855 2.3477554c1.512085 1.5032425 2.3616028 3.5420837 2.3616028 5.6679916l0 0c0 4.4269714 -3.6099243 8.015747 -8.062988 8.015747l0 0c-4.4530945 0 -8.063019 -3.5887756 -8.063019 -8.015747z" fill-rule="evenodd"/><path stroke="#424242" stroke-width="1.0" stroke-linejoin="round" stroke-linecap="butt" d="m258.2684 93.060425l0 0c0 -4.426979 3.6099243 -8.015747 8.063019 -8.015747l0 0c2.1384277 0 4.18927 0.84451294 5.7013855 2.3477554c1.512085 1.5032425 2.3616028 3.5420837 2.3616028 5.6679916l0 0c0 4.4269714 -3.6099243 8.015747 -8.062988 8.015747l0 0c-4.4530945 0 -8.063019 -3.5887756 -8.063019 -8.015747z" fill-rule="evenodd"/><path fill="#6aa84f" d="m210.26842 77.060425l0 0c0 -4.426979 3.6099243 -8.015747 8.062988 -8.015747l0 0c2.138443 0 4.1892853 0.84451294 5.7014008 2.3477554c1.5121002 1.5032425 2.3615875 3.5420837 2.3615875 5.6679916l0 0c0 4.4269714 -3.6099243 8.015747 -8.062988 8.015747l0 0c-4.453064 0 -8.062988 -3.5887756 -8.062988 -8.015747z" fill-rule="evenodd"/><path stroke="#424242" stroke-width="1.0" stroke-linejoin="round" stroke-linecap="butt" d="m210.26842 77.060425l0 0c0 -4.426979 3.6099243 -8.015747 8.062988 -8.015747l0 0c2.138443 0 4.1892853 0.84451294 5.7014008 2.3477554c1.5121002 1.5032425 2.3615875 3.5420837 2.3615875 5.6679916l0 0c0 4.4269714 -3.6099243 8.015747 -8.062988 8.015747l0 0c-4.453064 0 -8.062988 -3.5887756 -8.062988 -8.015747z" fill-rule="evenodd"/><path fill="#6aa84f" d="m226.26842 93.060425l0 0c0 -4.426979 3.6099243 -8.015747 8.062988 -8.015747l0 0c2.138443 0 4.1892853 0.84451294 5.7014008 2.3477554c1.5121002 1.5032425 2.3615875 3.5420837 2.3615875 5.6679916l0 0c0 4.4269714 -3.6099243 8.015747 -8.062988 8.015747l0 0c-4.453064 0 -8.062988 -3.5887756 -8.062988 -8.015747z" fill-rule="evenodd"/><path stroke="#424242" stroke-width="1.0" stroke-linejoin="round" stroke-linecap="butt" d="m226.26842 93.060425l0 0c0 -4.426979 3.6099243 -8.015747 8.062988 -8.015747l0 0c2.138443 0 4.1892853 0.84451294 5.7014008 2.3477554c1.5121002 1.5032425 2.3615875 3.5420837 2.3615875 5.6679916l0 0c0 4.4269714 -3.6099243 8.015747 -8.062988 8.015747l0 0c-4.453064 0 -8.062988 -3.5887756 -8.062988 -8.015747z" fill-rule="evenodd"/><path fill="#6aa84f" d="m242.26842 109.060425l0 0c0 -4.426979 3.6099243 -8.015747 8.062988 -8.015747l0 0c2.138443 0 4.1892853 0.84451294 5.7014008 2.3477554c1.512085 1.5032425 2.3616028 3.5420837 2.3616028 5.6679916l0 0c0 4.4269714 -3.6099396 8.015747 -8.063004 8.015747l0 0c-4.453064 0 -8.062988 -3.5887756 -8.062988 -8.015747z" fill-rule="evenodd"/><path stroke="#424242" stroke-width="1.0" stroke-linejoin="round" stroke-linecap="butt" d="m242.26842 109.060425l0 0c0 -4.426979 3.6099243 -8.015747 8.062988 -8.015747l0 0c2.138443 0 4.1892853 0.84451294 5.7014008 2.3477554c1.512085 1.5032425 2.3616028 3.5420837 2.3616028 5.6679916l0 0c0 4.4269714 -3.6099396 8.015747 -8.063004 8.015747l0 0c-4.453064 0 -8.062988 -3.5887756 -8.062988 -8.015747z" fill-rule="evenodd"/><path fill="#6aa84f" d="m106.26842 125.060425l0 0c0 -4.426979 3.6099243 -8.015747 8.062988 -8.015747l0 0c2.1384354 0 4.189293 0.84451294 5.701393 2.3477554c1.5121078 1.5032425 2.3616028 3.5420837 2.3616028 5.6679916l0 0c0 4.4269714 -3.609932 8.015747 -8.062996 8.015747l0 0c-4.453064 0 -8.062988 -3.5887756 -8.062988 -8.015747z" fill-rule="evenodd"/><path stroke="#424242" stroke-width="1.0" stroke-linejoin="round" stroke-linecap="butt" d="m106.26842 125.060425l0 0c0 -4.426979 3.6099243 -8.015747 8.062988 -8.015747l0 0c2.1384354 0 4.189293 0.84451294 5.701393 2.3477554c1.5121078 1.5032425 2.3616028 3.5420837 2.3616028 5.6679916l0 0c0 4.4269714 -3.609932 8.015747 -8.062996 8.015747l0 0c-4.453064 0 -8.062988 -3.5887756 -8.062988 -8.015747z" fill-rule="evenodd"/><path fill="#6aa84f" d="m122.26842 141.06042l0 0c0 -4.4269714 3.6099243 -8.015747 8.062988 -8.015747l0 0c2.138443 0 4.1892853 0.84451294 5.7014008 2.347763c1.5121002 1.5032349 2.3615875 3.5420685 2.3615875 5.667984l0 0c0 4.4269714 -3.6099243 8.015747 -8.062988 8.015747l0 0c-4.453064 0 -8.062988 -3.5887756 -8.062988 -8.015747z" fill-rule="evenodd"/><path stroke="#424242" stroke-width="1.0" stroke-linejoin="round" stroke-linecap="butt" d="m122.26842 141.06042l0 0c0 -4.4269714 3.6099243 -8.015747 8.062988 -8.015747l0 0c2.138443 0 4.1892853 0.84451294 5.7014008 2.347763c1.5121002 1.5032349 2.3615875 3.5420685 2.3615875 5.667984l0 0c0 4.4269714 -3.6099243 8.015747 -8.062988 8.015747l0 0c-4.453064 0 -8.062988 -3.5887756 -8.062988 -8.015747z" fill-rule="evenodd"/><path fill="#6aa84f" d="m368.10846 75.93927l0 0c0 -4.426979 3.6099243 -8.015747 8.063019 -8.015747l0 0c2.1384277 0 4.18927 0.84451294 5.7013855 2.3477554c1.5121155 1.5032425 2.3616028 3.5420837 2.3616028 5.6679916l0 0c0 4.4269714 -3.6099243 8.015747 -8.062988 8.015747l0 0c-4.4530945 0 -8.063019 -3.5887756 -8.063019 -8.015747z" fill-rule="evenodd"/><path stroke="#424242" stroke-width="1.0" stroke-linejoin="round" stroke-linecap="butt" d="m368.10846 75.93927l0 0c0 -4.426979 3.6099243 -8.015747 8.063019 -8.015747l0 0c2.1384277 0 4.18927 0.84451294 5.7013855 2.3477554c1.5121155 1.5032425 2.3616028 3.5420837 2.3616028 5.6679916l0 0c0 4.4269714 -3.6099243 8.015747 -8.062988 8.015747l0 0c-4.4530945 0 -8.063019 -3.5887756 -8.063019 -8.015747z" fill-rule="evenodd"/><path fill="#6aa84f" d="m270.16885 61.523514l0 0c0 -4.4269753 3.6099243 -8.015747 8.062988 -8.015747l0 0c2.1384277 0 4.18927 0.84451294 5.7013855 2.3477592c1.5121155 1.5032425 2.3616028 3.54208 2.3616028 5.667988l0 0c0 4.426979 -3.6099243 8.015747 -8.062988 8.015747l0 0c-4.453064 0 -8.062988 -3.588768 -8.062988 -8.015747z" fill-rule="evenodd"/><path stroke="#424242" stroke-width="1.0" stroke-linejoin="round" stroke-linecap="butt" d="m270.16885 61.523514l0 0c0 -4.4269753 3.6099243 -8.015747 8.062988 -8.015747l0 0c2.1384277 0 4.18927 0.84451294 5.7013855 2.3477592c1.5121155 1.5032425 2.3616028 3.54208 2.3616028 5.667988l0 0c0 4.426979 -3.6099243 8.015747 -8.062988 8.015747l0 0c-4.453064 0 -8.062988 -3.588768 -8.062988 -8.015747z" fill-rule="evenodd"/><path fill="#6aa84f" d="m359.13184 53.52416l0 0c0 -4.4269753 3.6099243 -8.015747 8.063019 -8.015747l0 0c2.1384277 0 4.18927 0.84451294 5.7013855 2.3477592c1.5121155 1.5032425 2.3616028 3.54208 2.3616028 5.667988l0 0c0 4.426979 -3.6099243 8.015751 -8.062988 8.015751l0 0c-4.4530945 0 -8.063019 -3.5887718 -8.063019 -8.015751z" fill-rule="evenodd"/><path stroke="#424242" stroke-width="1.0" stroke-linejoin="round" stroke-linecap="butt" d="m359.13184 53.52416l0 0c0 -4.4269753 3.6099243 -8.015747 8.063019 -8.015747l0 0c2.1384277 0 4.18927 0.84451294 5.7013855 2.3477592c1.5121155 1.5032425 2.3616028 3.54208 2.3616028 5.667988l0 0c0 4.426979 -3.6099243 8.015751 -8.062988 8.015751l0 0c-4.4530945 0 -8.063019 -3.5887718 -8.063019 -8.015751z" fill-rule="evenodd"/><path fill="#6aa84f" d="m335.13184 77.52416l0 0c0 -4.426979 3.6099243 -8.015747 8.063019 -8.015747l0 0c2.1384277 0 4.18927 0.84451294 5.7013855 2.3477554c1.5121155 1.5032425 2.3616028 3.5420837 2.3616028 5.6679916l0 0c0 4.4269714 -3.6099243 8.015747 -8.062988 8.015747l0 0c-4.4530945 0 -8.063019 -3.5887756 -8.063019 -8.015747z" fill-rule="evenodd"/><path stroke="#424242" stroke-width="1.0" stroke-linejoin="round" stroke-linecap="butt" d="m335.13184 77.52416l0 0c0 -4.426979 3.6099243 -8.015747 8.063019 -8.015747l0 0c2.1384277 0 4.18927 0.84451294 5.7013855 2.3477554c1.5121155 1.5032425 2.3616028 3.5420837 2.3616028 5.6679916l0 0c0 4.4269714 -3.6099243 8.015747 -8.062988 8.015747l0 0c-4.4530945 0 -8.063019 -3.5887756 -8.063019 -8.015747z" fill-rule="evenodd"/><path fill="#6aa84f" d="m274.2684 109.060425l0 0c0 -4.426979 3.6099243 -8.015747 8.063019 -8.015747l0 0c2.1384277 0 4.18927 0.84451294 5.7013855 2.3477554c1.512085 1.5032425 2.3616028 3.5420837 2.3616028 5.6679916l0 0c0 4.4269714 -3.6099243 8.015747 -8.062988 8.015747l0 0c-4.4530945 0 -8.063019 -3.5887756 -8.063019 -8.015747z" fill-rule="evenodd"/><path stroke="#424242" stroke-width="1.0" stroke-linejoin="round" stroke-linecap="butt" d="m274.2684 109.060425l0 0c0 -4.426979 3.6099243 -8.015747 8.063019 -8.015747l0 0c2.1384277 0 4.18927 0.84451294 5.7013855 2.3477554c1.512085 1.5032425 2.3616028 3.5420837 2.3616028 5.6679916l0 0c0 4.4269714 -3.6099243 8.015747 -8.062988 8.015747l0 0c-4.4530945 0 -8.063019 -3.5887756 -8.063019 -8.015747z" fill-rule="evenodd"/><path fill="#6aa84f" d="m190.50906 117.949l0 0c0 -4.4269714 3.6099243 -8.015747 8.062988 -8.015747l0 0c2.138443 0 4.1893005 0.84451294 5.7014008 2.3477554c1.5121002 1.5032501 2.3615875 3.5420837 2.3615875 5.6679916l0 0c0 4.426979 -3.6099243 8.015747 -8.062988 8.015747l0 0c-4.453064 0 -8.062988 -3.588768 -8.062988 -8.015747z" fill-rule="evenodd"/><path stroke="#424242" stroke-width="1.0" stroke-linejoin="round" stroke-linecap="butt" d="m190.50906 117.949l0 0c0 -4.4269714 3.6099243 -8.015747 8.062988 -8.015747l0 0c2.138443 0 4.1893005 0.84451294 5.7014008 2.3477554c1.5121002 1.5032501 2.3615875 3.5420837 2.3615875 5.6679916l0 0c0 4.426979 -3.6099243 8.015747 -8.062988 8.015747l0 0c-4.453064 0 -8.062988 -3.588768 -8.062988 -8.015747z" fill-rule="evenodd"/><path fill="#6aa84f" d="m198.50906 133.949l0 0c0 -4.4269867 3.6099243 -8.015755 8.062988 -8.015755l0 0c2.138443 0 4.1893005 0.84451294 5.7014008 2.3477554c1.5121002 1.5032501 2.3615875 3.5420837 2.3615875 5.6679993l0 0c0 4.4269714 -3.6099243 8.015747 -8.062988 8.015747l0 0c-4.453064 0 -8.062988 -3.5887756 -8.062988 -8.015747z" fill-rule="evenodd"/><path stroke="#424242" stroke-width="1.0" stroke-linejoin="round" stroke-linecap="butt" d="m198.50906 133.949l0 0c0 -4.4269867 3.6099243 -8.015755 8.062988 -8.015755l0 0c2.138443 0 4.1893005 0.84451294 5.7014008 2.3477554c1.5121002 1.5032501 2.3615875 3.5420837 2.3615875 5.6679993l0 0c0 4.4269714 -3.6099243 8.015747 -8.062988 8.015747l0 0c-4.453064 0 -8.062988 -3.5887756 -8.062988 -8.015747z" fill-rule="evenodd"/><path fill="#6aa84f" d="m222.50906 125.949l0 0c0 -4.4269714 3.6099243 -8.015747 8.062988 -8.015747l0 0c2.138443 0 4.1893005 0.84451294 5.7014008 2.3477554c1.5121002 1.5032501 2.3615875 3.5420837 2.3615875 5.6679916l0 0c0 4.426979 -3.6099243 8.015755 -8.062988 8.015755l0 0c-4.453064 0 -8.062988 -3.5887756 -8.062988 -8.015755z" fill-rule="evenodd"/><path stroke="#424242" stroke-width="1.0" stroke-linejoin="round" stroke-linecap="butt" d="m222.50906 125.949l0 0c0 -4.4269714 3.6099243 -8.015747 8.062988 -8.015747l0 0c2.138443 0 4.1893005 0.84451294 5.7014008 2.3477554c1.5121002 1.5032501 2.3615875 3.5420837 2.3615875 5.6679916l0 0c0 4.426979 -3.6099243 8.015755 -8.062988 8.015755l0 0c-4.453064 0 -8.062988 -3.5887756 -8.062988 -8.015755z" fill-rule="evenodd"/><path fill="#6aa84f" d="m290.2684 85.060425l0 0c0 -4.426979 3.6099243 -8.015747 8.063019 -8.015747l0 0c2.1384277 0 4.18927 0.84451294 5.7013855 2.3477554c1.512085 1.5032425 2.3616028 3.5420837 2.3616028 5.6679916l0 0c0 4.4269714 -3.6099243 8.015747 -8.062988 8.015747l0 0c-4.4530945 0 -8.063019 -3.5887756 -8.063019 -8.015747z" fill-rule="evenodd"/><path stroke="#424242" stroke-width="1.0" stroke-linejoin="round" stroke-linecap="butt" d="m290.2684 85.060425l0 0c0 -4.426979 3.6099243 -8.015747 8.063019 -8.015747l0 0c2.1384277 0 4.18927 0.84451294 5.7013855 2.3477554c1.512085 1.5032425 2.3616028 3.5420837 2.3616028 5.6679916l0 0c0 4.4269714 -3.6099243 8.015747 -8.062988 8.015747l0 0c-4.4530945 0 -8.063019 -3.5887756 -8.063019 -8.015747z" fill-rule="evenodd"/><path fill="#6aa84f" d="m234.26842 53.060425l0 0c0 -4.4269753 3.6099243 -8.015747 8.062988 -8.015747l0 0c2.138443 0 4.1892853 0.84451294 5.7014008 2.3477554c1.5121002 1.5032463 2.3615875 3.5420837 2.3615875 5.6679916l0 0c0 4.4269753 -3.6099243 8.015747 -8.062988 8.015747l0 0c-4.453064 0 -8.062988 -3.5887718 -8.062988 -8.015747z" fill-rule="evenodd"/><path stroke="#424242" stroke-width="1.0" stroke-linejoin="round" stroke-linecap="butt" d="m234.26842 53.060425l0 0c0 -4.4269753 3.6099243 -8.015747 8.062988 -8.015747l0 0c2.138443 0 4.1892853 0.84451294 5.7014008 2.3477554c1.5121002 1.5032463 2.3615875 3.5420837 2.3615875 5.6679916l0 0c0 4.4269753 -3.6099243 8.015747 -8.062988 8.015747l0 0c-4.453064 0 -8.062988 -3.5887718 -8.062988 -8.015747z" fill-rule="evenodd"/><path fill="#6aa84f" d="m250.26842 69.060425l0 0c0 -4.426979 3.6099243 -8.015747 8.063004 -8.015747l0 0c2.1384277 0 4.18927 0.84451294 5.7013855 2.3477554c1.512085 1.5032425 2.3616028 3.5420837 2.3616028 5.6679916l0 0c0 4.4269714 -3.6099243 8.015747 -8.062988 8.015747l0 0c-4.453079 0 -8.063004 -3.5887756 -8.063004 -8.015747z" fill-rule="evenodd"/><path stroke="#424242" stroke-width="1.0" stroke-linejoin="round" stroke-linecap="butt" d="m250.26842 69.060425l0 0c0 -4.426979 3.6099243 -8.015747 8.063004 -8.015747l0 0c2.1384277 0 4.18927 0.84451294 5.7013855 2.3477554c1.512085 1.5032425 2.3616028 3.5420837 2.3616028 5.6679916l0 0c0 4.4269714 -3.6099243 8.015747 -8.062988 8.015747l0 0c-4.453079 0 -8.063004 -3.5887756 -8.063004 -8.015747z" fill-rule="evenodd"/><path fill="#6aa84f" d="m266.2684 37.060425l0 0c0 -4.4269753 3.6099243 -8.015749 8.063019 -8.015749l0 0c2.1384277 0 4.18927 0.84451485 5.7013855 2.3477573c1.512085 1.5032463 2.3616028 3.5420837 2.3616028 5.6679916l0 0c0 4.4269753 -3.6099243 8.015747 -8.062988 8.015747l0 0c-4.4530945 0 -8.063019 -3.5887718 -8.063019 -8.015747z" fill-rule="evenodd"/><path stroke="#424242" stroke-width="1.0" stroke-linejoin="round" stroke-linecap="butt" d="m266.2684 37.060425l0 0c0 -4.4269753 3.6099243 -8.015749 8.063019 -8.015749l0 0c2.1384277 0 4.18927 0.84451485 5.7013855 2.3477573c1.512085 1.5032463 2.3616028 3.5420837 2.3616028 5.6679916l0 0c0 4.4269753 -3.6099243 8.015747 -8.062988 8.015747l0 0c-4.4530945 0 -8.063019 -3.5887718 -8.063019 -8.015747z" fill-rule="evenodd"/><path fill="#6aa84f" d="m290.2684 61.060425l0 0c0 -4.4269753 3.6099243 -8.015747 8.063019 -8.015747l0 0c2.1384277 0 4.18927 0.84451294 5.7013855 2.3477554c1.512085 1.5032463 2.3616028 3.5420837 2.3616028 5.6679916l0 0c0 4.4269714 -3.6099243 8.015747 -8.062988 8.015747l0 0c-4.4530945 0 -8.063019 -3.5887756 -8.063019 -8.015747z" fill-rule="evenodd"/><path stroke="#424242" stroke-width="1.0" stroke-linejoin="round" stroke-linecap="butt" d="m290.2684 61.060425l0 0c0 -4.4269753 3.6099243 -8.015747 8.063019 -8.015747l0 0c2.1384277 0 4.18927 0.84451294 5.7013855 2.3477554c1.512085 1.5032463 2.3616028 3.5420837 2.3616028 5.6679916l0 0c0 4.4269714 -3.6099243 8.015747 -8.062988 8.015747l0 0c-4.4530945 0 -8.063019 -3.5887756 -8.063019 -8.015747z" fill-rule="evenodd"/><path fill="#6aa84f" d="m298.2684 117.060425l0 0c0 -4.426979 3.6099243 -8.015747 8.063019 -8.015747l0 0c2.1384277 0 4.18927 0.84451294 5.7013855 2.3477554c1.512085 1.5032425 2.3616028 3.5420837 2.3616028 5.6679916l0 0c0 4.4269714 -3.6099243 8.015747 -8.062988 8.015747l0 0c-4.4530945 0 -8.063019 -3.5887756 -8.063019 -8.015747z" fill-rule="evenodd"/><path stroke="#424242" stroke-width="1.0" stroke-linejoin="round" stroke-linecap="butt" d="m298.2684 117.060425l0 0c0 -4.426979 3.6099243 -8.015747 8.063019 -8.015747l0 0c2.1384277 0 4.18927 0.84451294 5.7013855 2.3477554c1.512085 1.5032425 2.3616028 3.5420837 2.3616028 5.6679916l0 0c0 4.4269714 -3.6099243 8.015747 -8.062988 8.015747l0 0c-4.4530945 0 -8.063019 -3.5887756 -8.063019 -8.015747z" fill-rule="evenodd"/></g></svg>