<?xml version="1.0" encoding="utf-8"?>
<!-- Generator: Adobe Illustrator 19.1.0, SVG Export Plug-In . SVG Version: 6.00 Build 0)  -->
<svg version="1.1" id="Layer_1" xmlns="http://www.w3.org/2000/svg" xmlns:xlink="http://www.w3.org/1999/xlink" x="0px" y="0px"
     viewBox="0 0 672 341" style="enable-background:new 0 0 672 341;" xml:space="preserve">
<desc>A workflow diagram consisting of three stages. 1. Train model on training set. 2. Evaluate model on test set. 3. Tweak model according to results on test set. Iterate on 1, 2, and 3, ultimately picking the model that does best on the test set.</desc>
<style type="text/css">
	.test-st0{opacity:0;fill-rule:evenodd;clip-rule:evenodd;}
	.test-st1{fill:none;stroke:#999999;stroke-width:1.5;stroke-linejoin:round;stroke-miterlimit:14.3356;stroke-dasharray:6,4.5;}
	.test-st2{fill-rule:evenodd;clip-rule:evenodd;fill:#4285F4;}
	.test-st3{font-family:'Arial-BoldMT';}
	.test-st4{font-size:20px;}
	.test-st5{fill-rule:evenodd;clip-rule:evenodd;fill:#F4B400;}
	.test-st6{font-family:'ArialMT';}
	.test-st7{fill:none;stroke:#424242;stroke-width:2.25;stroke-linejoin:round;stroke-miterlimit:14.3356;}
	.test-st8{fill-rule:evenodd;clip-rule:evenodd;fill:#424242;}
	.test-st9{fill:none;stroke:#424242;stroke-width:2.25;stroke-miterlimit:11.4737;}
	.test-st10{font-size:24px;}
	.test-st11{fill:#F4B400;}
	.test-st12{fill:none;stroke:#000000;stroke-width:1.5;stroke-linejoin:round;stroke-miterlimit:14.3356;}
</style>
<rect x="4.1" y="3.4" class="test-st0" width="662.8" height="206.1"/>
<rect x="4.1" y="3.4" class="test-st1" width="662.8" height="206.1"/>
<rect x="35.3" y="11.3" class="test-st2" width="283.6" height="85.2"/>
<text transform="matrix(1 0 0 1 42.0489 61.1031)" class="test-st3 test-st4">Train model on Training Set</text>
<rect x="351.9" y="11.3" class="test-st5" width="275.9" height="85.2"/>
<text transform="matrix(1 0 0 1 358.6611 61.1089)" class="test-st3 test-st4">Evaluate model on Test Set</text>
<text transform="matrix(1 0 0 1 618.6279 61.1089)" class="test-st6 test-st4"> </text>
<line class="test-st0" x1="318.9" y1="53.9" x2="351.9" y2="53.9"/>
<line class="test-st7" x1="318.9" y1="53.9" x2="338.4" y2="53.9"/>
<polygon class="test-st8" points="338.4,57.6 348.6,53.9 338.4,50.2 "/>
<polygon class="test-st9" points="338.4,57.6 348.6,53.9 338.4,50.2 "/>
<polyline class="test-st0" points="627.8,53.9 646.5,53.9 646.5,163.5 459.4,163.5 "/>
<polyline class="test-st7" points="627.8,53.9 646.5,53.9 646.5,163.5 467.1,163.5 "/>
<polygon class="test-st8" points="467.1,163.5 469.6,160.9 462.7,163.5 469.6,166 "/>
<polygon class="test-st9" points="467.1,163.5 469.6,160.9 462.7,163.5 469.6,166 "/>
<rect x="183.5" y="125.4" class="test-st0" width="275.9" height="76.3"/>
<text transform="matrix(1 0 0 1 190.2559 155.1406)" class="test-st6 test-st10">Tweak model according </text>
<rect x="327.7" y="160.6" class="test-st11" width="93.4" height="28.8"/>
<text transform="matrix(1 0 0 1 190.2559 183.6406)" class="test-st6 test-st10">to results on </text>
<text transform="matrix(1 0 0 1 327.6583 183.6406)" class="test-st3 test-st10">Test Set</text>
<text transform="matrix(1 0 0 1 421.0215 183.6406)" class="test-st6 test-st10"> </text>
<polyline class="test-st0" points="35.3,53.9 16.5,53.9 16.5,163.5 183.5,163.5 "/>
<polyline class="test-st7" points="27.6,53.9 16.5,53.9 16.5,163.5 183.5,163.5 "/>
<polygon class="test-st8" points="27.6,53.9 25.1,56.4 32,53.9 25.1,51.4 "/>
<polygon class="test-st9" points="27.6,53.9 25.1,56.4 32,53.9 25.1,51.4 "/>
<rect x="203.8" y="259.9" class="test-st0" width="301.7" height="76.3"/>
<rect x="203.8" y="259.9" class="test-st12" width="301.7" height="76.3"/>
<rect x="203.3" y="260.3" class="test-st0" width="293.4" height="40.5"/>
<text transform="matrix(1 0 0 1 212.5723 290.1368)" class="test-st6 test-st10">Pick model that does best </text>
<rect x="320" y="295.6" class="test-st11" width="93.4" height="28.8"/>
<text transform="matrix(1 0 0 1 286.6172 318.6368)" class="test-st6 test-st10">on </text>
<text transform="matrix(1 0 0 1 319.9805 318.6368)" class="test-st3 test-st10">Test Set</text>
<line class="test-st0" x1="339.1" y1="210.1" x2="339.1" y2="255"/>
<line class="test-st7" x1="339.1" y1="210.1" x2="339.1" y2="247.3"/>
<polygon class="test-st8" points="339.1,247.3 336.6,244.8 339.1,251.7 341.6,244.8 "/>
<polygon class="test-st9" points="339.1,247.3 336.6,244.8 339.1,251.7 341.6,244.8 "/>
</svg>
